<?xml version="1.0" encoding="utf-8"?>
<!-- Generator: Adobe Illustrator 27.5.0, SVG Export Plug-In . SVG Version: 6.00 Build 0)  -->
<svg version="1.1" xmlns="http://www.w3.org/2000/svg" xmlns:xlink="http://www.w3.org/1999/xlink" x="0px" y="0px"
	 viewBox="0 0 500 500" style="enable-background:new 0 0 500 500;" xml:space="preserve">
<g id="Background_Complete">
	<g>
		<rect y="382.398" style="fill:#EBEBEB;" width="500" height="0.25"/>
		<rect x="416.779" y="398.494" style="fill:#EBEBEB;" width="33.122" height="0.25"/>
		<rect x="322.527" y="401.208" style="fill:#EBEBEB;" width="8.693" height="0.25"/>
		<rect x="396.586" y="389.208" style="fill:#EBEBEB;" width="19.192" height="0.25"/>
		<rect x="52.459" y="390.888" style="fill:#EBEBEB;" width="43.193" height="0.25"/>
		<rect x="104.556" y="390.888" style="fill:#EBEBEB;" width="6.333" height="0.25"/>
		<rect x="131.471" y="395.111" style="fill:#EBEBEB;" width="93.676" height="0.25"/>
		<path style="fill:#EBEBEB;" d="M237.014,337.8H43.915c-3.147,0-5.708-2.561-5.708-5.708V60.66c0-3.147,2.561-5.708,5.708-5.708
			h193.099c3.146,0,5.707,2.561,5.707,5.708v271.432C242.721,335.239,240.16,337.8,237.014,337.8z M43.915,55.203
			c-3.01,0-5.458,2.448-5.458,5.458v271.432c0,3.01,2.448,5.458,5.458,5.458h193.099c3.009,0,5.457-2.448,5.457-5.458V60.66
			c0-3.009-2.448-5.458-5.457-5.458H43.915z"/>
		<path style="fill:#EBEBEB;" d="M453.31,337.8H260.212c-3.147,0-5.707-2.561-5.707-5.708V60.66c0-3.147,2.561-5.708,5.707-5.708
			H453.31c3.148,0,5.708,2.561,5.708,5.708v271.432C459.019,335.239,456.458,337.8,453.31,337.8z M260.212,55.203
			c-3.009,0-5.457,2.448-5.457,5.458v271.432c0,3.01,2.448,5.458,5.457,5.458H453.31c3.01,0,5.458-2.448,5.458-5.458V60.66
			c0-3.009-2.448-5.458-5.458-5.458H260.212z"/>
	</g>
	<g>
		<g>
			<path style="fill:#FAFAFA;" d="M141.473,97.835c0-2.668-2.163-4.83-4.83-4.83c-0.482,0-0.947,0.073-1.387,0.205
				c0.07-0.484,0.108-0.979,0.108-1.483c0-5.649-4.58-10.229-10.229-10.229c-0.644,0-1.273,0.062-1.884,0.176
				c-1.572-2.573-4.399-4.296-7.634-4.296c-4.898,0-8.871,3.935-8.944,8.816c-0.05-0.001-0.099-0.007-0.149-0.007
				c-4.551,0-8.24,3.689-8.24,8.24c0,4.551,3.689,8.24,8.24,8.24h30.261l-0.006-0.007
				C139.383,102.586,141.473,100.457,141.473,97.835z"/>
			<path style="fill:#FAFAFA;" d="M436.957,155.114c0-2.668-2.163-4.83-4.83-4.83c-0.482,0-0.947,0.073-1.387,0.205
				c0.07-0.484,0.108-0.979,0.108-1.483c0-5.649-4.58-10.229-10.229-10.229c-0.644,0-1.273,0.062-1.884,0.176
				c-1.572-2.573-4.398-4.296-7.634-4.296c-4.898,0-8.871,3.935-8.943,8.816c-0.05-0.001-0.099-0.008-0.149-0.008
				c-4.551,0-8.24,3.689-8.24,8.24c0,4.551,3.689,8.24,8.24,8.24h30.26l-0.006-0.007
				C434.867,159.865,436.957,157.736,436.957,155.114z"/>
			<path style="fill:#FAFAFA;" d="M255.035,127.198c0-4.221,3.422-7.643,7.643-7.643c0.763,0,1.499,0.115,2.194,0.324
				c-0.111-0.766-0.172-1.549-0.172-2.347c0-8.938,7.246-16.184,16.184-16.184c1.019,0,2.014,0.099,2.981,0.279
				c2.487-4.071,6.959-6.798,12.079-6.798c7.749,0,14.036,6.227,14.151,13.949c0.079-0.001,0.156-0.012,0.236-0.012
				c7.2,0,13.037,5.837,13.037,13.037s-5.837,13.037-13.037,13.037h-47.879l0.01-0.011
				C258.342,134.714,255.035,131.346,255.035,127.198z"/>
			<path style="fill:#FAFAFA;" d="M58.437,203.09c0-5.079,4.118-9.197,9.197-9.197c0.918,0,1.804,0.139,2.641,0.389
				c-0.134-0.922-0.206-1.865-0.206-2.824c0-10.757,8.72-19.477,19.477-19.477c1.226,0,2.424,0.119,3.588,0.336
				c2.994-4.899,8.375-8.18,14.536-8.18c9.326,0,16.891,7.493,17.029,16.786c0.095-0.002,0.188-0.014,0.284-0.014
				c8.665,0,15.689,7.024,15.689,15.689c0,8.665-7.024,15.69-15.689,15.69H67.364l0.012-0.013
				C62.417,212.136,58.437,208.082,58.437,203.09z"/>
			<path style="fill:#FAFAFA;" d="M200.258,126.554c0-1.659-1.345-3.003-3.003-3.003c-0.3,0-0.589,0.045-0.862,0.127
				c0.044-0.301,0.067-0.609,0.067-0.922c0-3.512-2.847-6.359-6.359-6.359c-0.4,0-0.792,0.039-1.171,0.109
				c-0.977-1.6-2.734-2.671-4.746-2.671c-3.045,0-5.515,2.447-5.56,5.481c-0.031,0-0.061-0.005-0.093-0.005
				c-2.829,0-5.123,2.294-5.123,5.123s2.294,5.123,5.123,5.123h18.813l-0.004-0.004
				C198.958,129.508,200.258,128.184,200.258,126.554z"/>
			<path style="fill:#FAFAFA;" d="M356.794,88.902c0-1.659,1.345-3.003,3.003-3.003c0.3,0,0.589,0.045,0.862,0.127
				c-0.044-0.301-0.067-0.609-0.067-0.922c0-3.512,2.847-6.359,6.359-6.359c0.4,0,0.792,0.039,1.172,0.109
				c0.977-1.6,2.734-2.671,4.746-2.671c3.045,0,5.515,2.447,5.56,5.481c0.031,0,0.061-0.005,0.093-0.005
				c2.829,0,5.123,2.294,5.123,5.123s-2.293,5.123-5.123,5.123h-18.813l0.004-0.004C358.093,91.855,356.794,90.532,356.794,88.902z"
				/>
		</g>
		<path style="fill:#F5F5F5;" d="M395.431,238.699l-8.641-45.613l-10.168-53.69l-0.002,0.01l-0.001-0.007l-16.653,99.299h-1.476
			l-4.172-22.022c-0.001-0.014,0-0.028-0.006-0.046l-14.633-77.226l0,0.003l-0.002-0.008l-16.653,99.299h-1.474l-5.245-27.688
			l-3.934-20.757l-9.634-50.855l-0.002,0.009l-0.002-0.011l-10.649,63.48l-6.005,35.821h-1.474l-8.641-45.613l-10.168-53.69
			l-0.002,0.01l-0.001-0.007l-16.653,99.299h-1.474l-5.245-27.688l-4.005-21.135l-9.563-50.476l-0.002,0.009l-0.002-0.011
			l-10.649,63.48l-6.005,35.821h-1.474l-4.172-22.022c-0.001-0.014,0-0.028-0.006-0.046l-14.632-77.226l0,0.003l-0.002-0.008
			l-16.653,99.299h-1.476l-8.641-45.613l-10.168-53.69l-0.002,0.01l-0.001-0.007l-16.653,99.299h-1.474l-5.245-27.688l-3.858-20.359
			l-9.71-51.252l-0.002,0.009l-0.002-0.011l-10.649,63.48l-6.005,35.821v61.045h294.06L395.431,238.699L395.431,238.699z"/>
		<path style="fill:#F0F0F0;" d="M424.445,309.09l-10.347-54.614l-12.174-64.285l-0.002,0.013l-0.001-0.008l-19.94,118.894h-1.768
			l-4.995-26.367c-0.001-0.017,0-0.033-0.007-0.055l-17.52-92.466l-0.001,0.004l-0.002-0.01l-19.94,118.894h-1.764l-6.28-33.152
			l-4.71-24.853l-11.535-60.89l-0.002,0.011l-0.003-0.014l-12.75,76.007l-7.19,42.889h-1.765l-10.346-54.614l-12.174-64.285
			l-0.002,0.013l-0.002-0.008l-19.94,118.894h-1.764l-6.28-33.152l-4.795-25.306l-11.45-60.437l-0.002,0.011l-0.003-0.014
			l-12.75,76.007l-7.19,42.889h-1.764l-4.995-26.367c-0.001-0.017,0-0.033-0.007-0.055l-17.52-92.466l-0.001,0.004l-0.002-0.01
			l-19.94,118.894h-1.767l-10.347-54.614l-12.174-64.285l-0.002,0.013l-0.001-0.008l-19.94,118.894h-1.765l-6.28-33.152
			l-4.62-24.377L92.3,190.195l-0.002,0.011l-0.002-0.014L79.546,266.2l-7.19,42.889v73.091h352.089L424.445,309.09L424.445,309.09z"
			/>
		<g>
			<g>
				<rect x="378.04" y="307.23" style="fill:#E6E6E6;enable-background:new    ;" width="6.115" height="74.95"/>
				<path style="fill:#EBEBEB;enable-background:new    ;" d="M402.328,358.182c0,0-26.59,9.403-42.46,0l3.23-19.257l16.71-99.639
					l19.79,104.5c0,0,0,0,0,0.017L402.328,358.182z"/>
			</g>
			<g>
				<rect x="289.578" y="307.23" style="fill:#E6E6E6;enable-background:new    ;" width="6.115" height="74.95"/>
				<path style="fill:#EBEBEB;enable-background:new    ;" d="M313.869,358.185c0,0-26.59,9.402-42.47,0l7.19-42.889l12.75-76.007
					l16.25,85.745L313.869,358.185z"/>
			</g>
			<g>
				<rect x="422.271" y="307.23" style="fill:#E6E6E6;enable-background:new    ;" width="6.115" height="74.95"/>
				<path style="fill:#EBEBEB;enable-background:new    ;" d="M446.559,358.193c0,0-26.58,9.386-42.46,0l3.75-22.375l16.19-96.522
					l17.52,92.466c0.01,0.034,0.01,0.067,0.01,0.084c0.01,0.05,0.01,0.067,0.01,0.067L446.559,358.193z"/>
			</g>
			<g>
				<rect x="245.344" y="307.23" style="fill:#E6E6E6;enable-background:new    ;" width="6.115" height="74.95"/>
				<path style="fill:#EBEBEB;enable-background:new    ;" d="M269.633,358.182c0,0-26.59,9.403-42.46,0l3.23-19.257l16.71-99.639
					l19.79,104.5c0,0,0,0,0,0.017L269.633,358.182z"/>
			</g>
			<g>
				<rect x="201.115" y="307.23" style="fill:#E6E6E6;enable-background:new    ;" width="6.115" height="74.95"/>
				<path style="fill:#EBEBEB;enable-background:new    ;" d="M225.405,358.185c0,0-26.59,9.402-42.47,0l7.19-42.889l12.75-76.007
					l16.25,85.745L225.405,358.185z"/>
			</g>
			<g>
				<rect x="333.808" y="307.23" style="fill:#E6E6E6;enable-background:new    ;" width="6.115" height="74.95"/>
				<path style="fill:#EBEBEB;enable-background:new    ;" d="M358.095,358.193c0,0-26.58,9.386-42.46,0l3.75-22.375l16.19-96.522
					l17.52,92.466c0.01,0.034,0.01,0.067,0.01,0.084c0.01,0.05,0.01,0.067,0.01,0.067L358.095,358.193z"/>
			</g>
			<g>
				<rect x="112.649" y="307.23" style="fill:#E6E6E6;enable-background:new    ;" width="6.115" height="74.95"/>
				<path style="fill:#EBEBEB;enable-background:new    ;" d="M136.938,358.182c0,0-26.59,9.403-42.46,0l3.23-19.257l16.71-99.639
					l19.79,104.5c0,0,0,0,0,0.017L136.938,358.182z"/>
			</g>
			<g>
				<rect x="68.42" y="307.23" style="fill:#E6E6E6;enable-background:new    ;" width="6.115" height="74.95"/>
				<path style="fill:#EBEBEB;enable-background:new    ;" d="M92.71,358.185c0,0-26.59,9.402-42.47,0l7.19-42.889l12.75-76.007
					l16.25,85.745L92.71,358.185z"/>
			</g>
			<g>
				<rect x="156.881" y="307.23" style="fill:#E6E6E6;enable-background:new    ;" width="6.115" height="74.95"/>
				<path style="fill:#EBEBEB;enable-background:new    ;" d="M181.169,358.193c0,0-26.58,9.386-42.46,0l3.75-22.375l16.19-96.522
					l17.52,92.466c0.01,0.034,0.01,0.067,0.01,0.084c0.01,0.05,0.01,0.067,0.01,0.067L181.169,358.193z"/>
			</g>
		</g>
	</g>
</g>
<g id="Background_Simple" style="display:none;">
	<g style="display:inline;">
		<path style="fill:#407BFF;" d="M97.331,113.836c44.103-60.021,145.526-44.651,200.919,7.861
			c55.393,52.512,152.159,62.112,113.378,157.886s-81.226,96.648-191.2,94.138S27.744,208.539,97.331,113.836z"/>
		<path style="opacity:0.9;fill:#FFFFFF;" d="M97.331,113.836c44.103-60.021,145.526-44.651,200.919,7.861
			c55.393,52.512,152.159,62.112,113.378,157.886s-81.226,96.648-191.2,94.138S27.744,208.539,97.331,113.836z"/>
	</g>
</g>
<g id="Shadow_1_">
	<ellipse id="_x3C_Path_x3E__359_" style="fill:#F5F5F5;" cx="250" cy="416.238" rx="193.889" ry="11.323"/>
</g>
<g id="Tree_2">
	<g>
		<g>
			<path style="fill:#407BFF;" d="M388.374,388.223c0,0-2.737-0.144-3.01-7.634c-0.273-7.49,4.551-9.489,8.264-8.57
				c0,0-0.542-5.332,1.864-5.137c2.405,0.196,2.241,3.757,2.241,3.757s0.821-7.561,4.105-7.565c3.284-0.003,0,8.945,0,8.945
				s4.543-2.181,6.212,0s-2.087,4.739-2.087,4.739s5.891,1.919,3.428,8.028c0,0,4.105,0.641,5.254,3.374
				c0,0-0.328-5.517,1.149-5.147c1.478,0.37,1.149,5.21,1.149,5.21s2.463-5.316,4.598-3.437c2.135,1.879-0.985,6.381-0.985,6.381
				s4.105-1.993,4.762,0.647c0.657,2.641-2.299,3.625-2.299,3.625s4.269-0.987,4.269,3.911c0,0,8.21-0.784,10.18,3.615h-48.93
				L388.374,388.223z"/>
			<path style="opacity:0.4;fill:#FFFFFF;enable-background:new    ;" d="M388.374,388.223c0,0-2.737-0.144-3.01-7.634
				c-0.273-7.49,4.551-9.489,8.264-8.57c0,0-0.542-5.332,1.864-5.137c2.405,0.196,2.241,3.757,2.241,3.757s0.821-7.561,4.105-7.565
				c3.284-0.003,0,8.945,0,8.945s4.543-2.181,6.212,0s-2.087,4.739-2.087,4.739s5.891,1.919,3.428,8.028
				c0,0,4.105,0.641,5.254,3.374c0,0-0.328-5.517,1.149-5.147c1.478,0.37,1.149,5.21,1.149,5.21s2.463-5.316,4.598-3.437
				c2.135,1.879-0.985,6.381-0.985,6.381s4.105-1.993,4.762,0.647c0.657,2.641-2.299,3.625-2.299,3.625s4.269-0.987,4.269,3.911
				c0,0,8.21-0.784,10.18,3.615h-48.93L388.374,388.223z"/>
		</g>
		<g>
			<g>
				<g>
					<path style="fill:#263238;" d="M390.97,311.508c1.181,19.353,7.558,91.031,7.558,91.031l-46.29,0.427l13.045-129.483
						l-20.773-6.333l-4.361-12.587l-17.54-9.927l-8.575-13.162l3.313-0.805l9.468,12.16l11.047,2.398l-4.73-11.199h5.262
						l13.15,25.946l13.496,2.767l1.232-47.195c13.551,6.334,17.887-4.212,17.887-4.212s3.505,73.894,5.476,79.477l0,0
						c1.715-0.864,3.659-2.349,5.54-4.006c4.593-4.045,8.518-8.791,11.794-13.961l0.878-1.386h4.206L390.97,311.508z"/>
				</g>
				<g style="opacity:0.3;enable-background:new    ;">
					<g>
						<path style="fill:#FFFFFF;" d="M390.97,311.508c1.181,19.353,7.558,91.031,7.558,91.031l-46.29,0.427l13.045-129.483
							l-20.773-6.333l-4.361-12.587l-17.54-9.927l-8.575-13.162l3.313-0.805l9.468,12.16l11.047,2.398l-4.73-11.199h5.262
							l13.15,25.946l13.496,2.767l1.232-47.195c13.551,6.334,17.887-4.212,17.887-4.212s3.505,73.894,5.476,79.477l0,0
							c1.715-0.864,3.659-2.349,5.54-4.006c4.593-4.045,8.518-8.791,11.794-13.961l0.878-1.386h4.206L390.97,311.508z"/>
					</g>
				</g>
			</g>
			<path style="opacity:0.1;enable-background:new    ;" d="M342.171,251.063l5.645,10.877l17.642,4.465
				c0,0-0.057-2.775-0.349-6.334l-0.07,2.67l-13.496-2.767l-13.15-25.946h-5.262l4.73,11.2l-11.047-2.398l-9.468-12.16l-0.461,0.112
				l7.291,11.035L342.171,251.063z"/>
			<polygon style="opacity:0.2;fill:#FFFFFF;enable-background:new    ;" points="367.575,338.937 363.409,402.863 370.751,402.795 
				370.751,352.341 			"/>
			<path style="opacity:0.1;fill:#FFFFFF;enable-background:new    ;" d="M390.97,311.508l21.083-40.051h-4.206l-0.879,1.386
				c-3.276,5.17-7.201,9.916-11.794,13.961c-1.881,1.656-3.824,3.142-5.54,4.006c-1.97-5.583-5.476-79.477-5.476-79.477
				s-1.902,4.616-7.115,5.904c-0.2,23.871-0.4,47.741-0.601,71.612c-1.496-3.409-2.793-6.654-2.918-10.188
				c-0.448,9.781-1.041,20.297-1.004,29.947l8.11,29.915l1.618,64.167l16.28-0.15C398.528,402.539,392.151,330.861,390.97,311.508z"
				/>
		</g>
		<g>
			<g>
				<path style="fill:#407BFF;" d="M443.069,186.438c6.754,2.408,11.402,9.554,11.191,16.722
					c-0.211,7.167-5.075,13.897-11.692,16.66c-6.617,2.763-14.631,1.588-20.39-2.685c-0.295,6.882-5.001,14.373-11.568,16.453
					c-6.566,2.081-14.312-0.347-18.516-5.803c-17.696,11.117-79.66,15.24-90.551-32.108c-2.249-9.779,3.197-20.136,11.182-26.214
					c7.985-6.077,18.131-8.566,28.092-9.785c9.449-15.045,30.403-23.269,48.012-20.906c17.609,2.363,33.266,15.688,38.415,32.693
					C445.199,171.512,443.331,187.64,443.069,186.438z"/>
			</g>
			<g style="opacity:0.2;enable-background:new    ;">
				<path d="M443.069,186.438c6.754,2.408,11.402,9.554,11.191,16.722c-0.211,7.167-5.075,13.897-11.692,16.66
					c-6.617,2.763-14.631,1.588-20.39-2.685c-0.295,6.882-5.001,14.373-11.568,16.453c-6.566,2.081-14.312-0.347-18.516-5.803
					c-17.696,11.117-79.66,15.24-90.551-32.108c-2.249-9.779,3.197-20.136,11.182-26.214c7.985-6.077,18.131-8.566,28.092-9.785
					c9.449-15.045,30.403-23.269,48.012-20.906c17.609,2.363,33.266,15.688,38.415,32.693
					C445.199,171.512,443.331,187.64,443.069,186.438z"/>
			</g>
		</g>
		<g>
			<path style="fill:#407BFF;" d="M421.205,279.582c-2.004,2.962-5.788,4.607-9.321,4.052c-3.532-0.555-6.63-3.281-7.629-6.715
				c-4.194,2.951-10.674,2.221-14.921-0.654c-4.247-2.875-6.434-8.488-5.252-13.478c1.182-4.99,5.654-9.026,10.739-9.691
				c0.531-4.88,2.974-8.979,7.138-11.576c4.165-2.597,9.534-3.164,14.149-1.494c5.466-1.002,11.063,0.961,15.052,4.831
				c2.841,2.757,4.734,6.669,4.403,10.614c-0.331,3.945-3.21,7.734-7.097,8.482c1.295,2.95,1.663,6.261,0.406,9.228
				C427.616,276.148,424.224,278.46,421.205,279.582z"/>
			<path style="opacity:0.2;enable-background:new    ;" d="M421.205,279.582c-2.004,2.962-5.788,4.607-9.321,4.052
				c-3.532-0.555-6.63-3.281-7.629-6.715c-4.194,2.951-10.674,2.221-14.921-0.654c-4.247-2.875-6.434-8.488-5.252-13.478
				c1.182-4.99,5.654-9.026,10.739-9.691c0.531-4.88,2.974-8.979,7.138-11.576c4.165-2.597,9.534-3.164,14.149-1.494
				c5.466-1.002,11.063,0.961,15.052,4.831c2.841,2.757,4.734,6.669,4.403,10.614c-0.331,3.945-3.21,7.734-7.097,8.482
				c1.295,2.95,1.663,6.261,0.406,9.228C427.616,276.148,424.224,278.46,421.205,279.582z"/>
		</g>
		<g>
			<path style="fill:#407BFF;" d="M331.999,207.996c3.38-1.165,7.395-0.208,9.887,2.356c2.491,2.564,3.332,6.605,2.069,9.95
				c5.126,0.159,9.869,4.633,11.539,9.482c1.67,4.849,0.048,10.651-3.893,13.932c-3.941,3.281-9.941,3.823-14.407,1.302
				c-3.354,3.583-7.769,5.395-12.659,4.971c-4.89-0.424-9.524-3.194-12.211-7.301c-4.973-2.481-8.27-7.411-9.136-12.9
				c-0.617-3.91,0.219-8.176,2.852-11.132c2.633-2.956,7.21-4.257,10.768-2.522c0.736-3.137,2.43-6.005,5.216-7.623
				C324.809,206.893,328.91,207.081,331.999,207.996z"/>
			<path style="opacity:0.1;enable-background:new    ;" d="M331.999,207.996c3.38-1.165,7.395-0.208,9.887,2.356
				c2.491,2.564,3.332,6.605,2.069,9.95c5.126,0.159,9.869,4.633,11.539,9.482c1.67,4.849,0.048,10.651-3.893,13.932
				c-3.941,3.281-9.941,3.823-14.407,1.302c-3.354,3.583-7.769,5.395-12.659,4.971c-4.89-0.424-9.524-3.194-12.211-7.301
				c-4.973-2.481-8.27-7.411-9.136-12.9c-0.617-3.91,0.219-8.176,2.852-11.132c2.633-2.956,7.21-4.257,10.768-2.522
				c0.736-3.137,2.43-6.005,5.216-7.623C324.809,206.893,328.91,207.081,331.999,207.996z"/>
		</g>
		<g>
			<path style="fill:#407BFF;" d="M391.067,401.094c0,0-16.998-11.017-13.774-12.877c3.224-1.86,14.563,9.143,14.563,9.143
				s-12.527-18.33-9.432-22.003c3.095-3.673,11.433,14.937,11.433,14.937s-5.67-21.279-1.667-23.613
				c4.002-2.335,5.453,21.326,5.453,21.326s1.564-25.629,8.894-25.311c7.33,0.317-3.342,25.311-3.342,25.311
				s10.339-14.831,14.007-10.622c3.668,4.21-11.673,16.034-11.673,16.034s11.472-5.394,12.239-1.392
				c0.767,4.002-12.656,8.254-12.656,8.254s4.314,1.238,5.312,2.683l-22.957,0.002C387.467,402.966,387.103,401.865,391.067,401.094
				z"/>
			<path style="opacity:0.6;fill:#FFFFFF;enable-background:new    ;" d="M391.067,401.094c0,0-16.998-11.017-13.774-12.877
				c3.224-1.86,14.563,9.143,14.563,9.143s-12.527-18.33-9.432-22.003c3.095-3.673,11.433,14.937,11.433,14.937
				s-5.67-21.279-1.667-23.613c4.002-2.335,5.453,21.326,5.453,21.326s1.564-25.629,8.894-25.311
				c7.33,0.317-3.342,25.311-3.342,25.311s10.339-14.831,14.007-10.622c3.668,4.21-11.673,16.034-11.673,16.034
				s11.472-5.394,12.239-1.392c0.767,4.002-12.656,8.254-12.656,8.254s4.314,1.238,5.312,2.683l-22.957,0.002
				C387.467,402.966,387.103,401.865,391.067,401.094z"/>
		</g>
	</g>
</g>
<g id="Tree_1">
	<g>
		<g>
			<path style="fill:#263238;" d="M109.312,391.23c0,0-2.179-0.115-2.396-6.077c-0.217-5.962,3.623-7.553,6.579-6.822
				c0,0-0.431-4.245,1.484-4.089c1.915,0.156,1.784,2.991,1.784,2.991s0.654-6.019,3.268-6.022c2.614-0.003,0,7.12,0,7.12
				s3.617-1.736,4.945,0c1.329,1.736-1.661,3.772-1.661,3.772s4.689,1.528,2.729,6.39c0,0,3.268,0.51,4.182,2.686
				c0,0-0.261-4.391,0.915-4.097c1.176,0.294,0.915,4.147,0.915,4.147s1.96-4.232,3.66-2.736c1.699,1.496-0.784,5.08-0.784,5.08
				s3.267-1.587,3.79,0.516c0.523,2.102-1.83,2.886-1.83,2.886s3.398-0.785,3.398,3.113c0,0,6.535-0.624,8.104,2.878h-38.95
				L109.312,391.23z"/>
			<path style="opacity:0.4;fill:#FFFFFF;enable-background:new    ;" d="M109.312,391.23c0,0-2.179-0.115-2.396-6.077
				c-0.217-5.962,3.623-7.553,6.579-6.822c0,0-0.431-4.245,1.484-4.089c1.915,0.156,1.784,2.991,1.784,2.991
				s0.654-6.019,3.268-6.022c2.614-0.003,0,7.12,0,7.12s3.617-1.736,4.945,0c1.329,1.736-1.661,3.772-1.661,3.772
				s4.689,1.528,2.729,6.39c0,0,3.268,0.51,4.182,2.686c0,0-0.261-4.391,0.915-4.097c1.176,0.294,0.915,4.147,0.915,4.147
				s1.96-4.232,3.66-2.736c1.699,1.496-0.784,5.08-0.784,5.08s3.267-1.587,3.79,0.516c0.523,2.102-1.83,2.886-1.83,2.886
				s3.398-0.785,3.398,3.113c0,0,6.535-0.624,8.104,2.878h-38.95L109.312,391.23z"/>
		</g>
		<g>
			<path style="fill:#263238;" d="M111.456,401.476c0,0-13.531-8.77-10.965-10.25c2.566-1.48,11.593,7.278,11.593,7.278
				s-9.972-14.591-7.508-17.515s9.101,11.89,9.101,11.89s-4.513-16.939-1.327-18.797c3.186-1.858,4.341,16.976,4.341,16.976
				s1.245-20.401,7.08-20.149c5.835,0.253-2.66,20.149-2.66,20.149s8.23-11.806,11.15-8.455c2.92,3.351-9.292,12.764-9.292,12.764
				s9.132-4.294,9.743-1.108c0.611,3.186-10.075,6.571-10.075,6.571s3.434,0.985,4.229,2.136l-18.275,0.001
				C108.59,402.966,108.301,402.09,111.456,401.476z"/>
			<path style="opacity:0.6;fill:#FFFFFF;enable-background:new    ;" d="M111.456,401.476c0,0-13.531-8.77-10.965-10.25
				c2.566-1.48,11.593,7.278,11.593,7.278s-9.972-14.591-7.508-17.515s9.101,11.89,9.101,11.89s-4.513-16.939-1.327-18.797
				c3.186-1.858,4.341,16.976,4.341,16.976s1.245-20.401,7.08-20.149c5.835,0.253-2.66,20.149-2.66,20.149s8.23-11.806,11.15-8.455
				c2.92,3.351-9.292,12.764-9.292,12.764s9.132-4.294,9.743-1.108c0.611,3.186-10.075,6.571-10.075,6.571s3.434,0.985,4.229,2.136
				l-18.275,0.001C108.59,402.966,108.301,402.09,111.456,401.476z"/>
		</g>
		<g>
			<path style="fill:#407BFF;" d="M99.248,391.23c0,0,2.179-0.115,2.396-6.077c0.217-5.962-3.623-7.553-6.579-6.822
				c0,0,0.431-4.245-1.484-4.089c-1.915,0.156-1.784,2.991-1.784,2.991s-0.654-6.019-3.268-6.022c-2.614-0.003,0,7.12,0,7.12
				s-3.616-1.736-4.945,0c-1.329,1.736,1.661,3.772,1.661,3.772s-4.689,1.528-2.729,6.39c0,0-3.268,0.51-4.183,2.686
				c0,0,0.261-4.391-0.915-4.097s-0.915,4.147-0.915,4.147s-1.961-4.232-3.66-2.736c-1.699,1.496,0.784,5.08,0.784,5.08
				s-3.268-1.587-3.79,0.516c-0.523,2.102,1.83,2.886,1.83,2.886s-3.398-0.785-3.398,3.113c0,0-6.535-0.624-8.104,2.878h38.95
				L99.248,391.23z"/>
			<path style="opacity:0.4;fill:#FFFFFF;enable-background:new    ;" d="M99.248,391.23c0,0,2.179-0.115,2.396-6.077
				c0.217-5.962-3.623-7.553-6.579-6.822c0,0,0.431-4.245-1.484-4.089c-1.915,0.156-1.784,2.991-1.784,2.991
				s-0.654-6.019-3.268-6.022c-2.614-0.003,0,7.12,0,7.12s-3.616-1.736-4.945,0c-1.329,1.736,1.661,3.772,1.661,3.772
				s-4.689,1.528-2.729,6.39c0,0-3.268,0.51-4.183,2.686c0,0,0.261-4.391-0.915-4.097s-0.915,4.147-0.915,4.147
				s-1.961-4.232-3.66-2.736c-1.699,1.496,0.784,5.08,0.784,5.08s-3.268-1.587-3.79,0.516c-0.523,2.102,1.83,2.886,1.83,2.886
				s-3.398-0.785-3.398,3.113c0,0-6.535-0.624-8.104,2.878h38.95L99.248,391.23z"/>
		</g>
		<g>
			<g>
				<g>
					<path style="fill:#263238;" d="M91.419,330.163c-0.94,15.405-6.017,72.464-6.017,72.464l36.848,0.34l-10.384-103.073
						l16.536-5.041l3.472-10.02l13.963-7.902l6.826-10.478l-2.637-0.64l-7.536,9.68l-8.794,1.909l3.766-8.915h-4.188l-10.468,20.654
						l-10.744,2.203l-0.981-37.569c-10.787,5.042-14.239-3.353-14.239-3.353s-2.79,58.822-4.359,63.266l0,0
						c-1.365-0.688-2.913-1.87-4.41-3.189c-3.656-3.22-6.78-6.998-9.388-11.113l-0.699-1.104h-3.348L91.419,330.163z"/>
				</g>
				<g style="opacity:0.3;enable-background:new    ;">
					<g>
						<path style="fill:#FFFFFF;" d="M91.419,330.163c-0.94,15.405-6.017,72.464-6.017,72.464l36.848,0.34l-10.384-103.073
							l16.536-5.041l3.472-10.02l13.963-7.902l6.826-10.478l-2.637-0.64l-7.536,9.68l-8.794,1.909l3.766-8.915h-4.188
							l-10.468,20.654l-10.744,2.203l-0.981-37.569c-10.787,5.042-14.239-3.353-14.239-3.353s-2.79,58.822-4.359,63.266l0,0
							c-1.365-0.688-2.913-1.87-4.41-3.189c-3.656-3.22-6.78-6.998-9.388-11.113l-0.699-1.104h-3.348L91.419,330.163z"/>
					</g>
				</g>
			</g>
			<path style="opacity:0.1;enable-background:new    ;" d="M130.265,282.046l-4.494,8.659l-14.043,3.554
				c0,0,0.045-2.209,0.278-5.042l0.055,2.126l10.743-2.203l10.468-20.654h4.188l-3.765,8.915l8.794-1.909l7.536-9.68l0.367,0.089
				l-5.804,8.784L130.265,282.046z"/>
			<polygon style="opacity:0.2;fill:#FFFFFF;enable-background:new    ;" points="110.042,351.996 113.359,402.884 107.514,402.83 
				107.514,362.667 			"/>
			<path style="opacity:0.1;fill:#FFFFFF;enable-background:new    ;" d="M91.419,330.163l-16.783-31.882h3.348l0.699,1.104
				c2.608,4.115,5.732,7.893,9.388,11.113c1.497,1.318,3.044,2.501,4.41,3.189c1.568-4.445,4.359-63.266,4.359-63.266
				s1.514,3.674,5.664,4.7c0.159,19.002,0.319,38.004,0.479,57.005c1.191-2.714,2.223-5.296,2.323-8.11
				c0.356,7.786,0.828,16.157,0.799,23.839l-6.456,23.813l-1.288,51.079l-12.959-0.12C85.403,402.626,90.479,345.568,91.419,330.163
				z"/>
		</g>
		<g>
			<g>
				<path style="fill:#407BFF;" d="M49.947,230.602c-5.376,1.917-9.077,7.606-8.908,13.311c0.168,5.705,4.04,11.063,9.307,13.262
					s11.647,1.264,16.231-2.137c0.235,5.478,3.981,11.441,9.208,13.097c5.227,1.656,11.393-0.276,14.739-4.619
					c14.087,8.85,63.412,12.132,72.081-25.559c1.79-7.785-2.545-16.029-8.902-20.867c-6.356-4.838-14.433-6.819-22.362-7.789
					c-7.522-11.977-24.202-18.523-38.219-16.642c-14.017,1.881-26.481,12.489-30.579,26.024
					C48.251,218.721,49.739,231.559,49.947,230.602z"/>
			</g>
			<g style="opacity:0.2;enable-background:new    ;">
				<path d="M49.947,230.602c-5.376,1.917-9.077,7.606-8.908,13.311c0.168,5.705,4.04,11.063,9.307,13.262
					s11.647,1.264,16.231-2.137c0.235,5.478,3.981,11.441,9.208,13.097c5.227,1.656,11.393-0.276,14.739-4.619
					c14.087,8.85,63.412,12.132,72.081-25.559c1.79-7.785-2.545-16.029-8.902-20.867c-6.356-4.838-14.433-6.819-22.362-7.789
					c-7.522-11.977-24.202-18.523-38.219-16.642c-14.017,1.881-26.481,12.489-30.579,26.024
					C48.251,218.721,49.739,231.559,49.947,230.602z"/>
			</g>
		</g>
		<g>
			<path style="fill:#407BFF;" d="M67.352,304.749c1.595,2.358,4.608,3.667,7.42,3.226c2.812-0.442,5.278-2.612,6.073-5.345
				c3.339,2.349,8.497,1.768,11.877-0.521c3.38-2.289,5.122-6.757,4.181-10.729c-0.941-3.972-4.501-7.185-8.549-7.715
				c-0.422-3.884-2.367-7.147-5.682-9.215c-3.315-2.068-7.589-2.519-11.263-1.189c-4.351-0.798-8.807,0.765-11.982,3.845
				c-2.262,2.194-3.769,5.309-3.505,8.449c0.263,3.14,2.555,6.156,5.649,6.752c-1.031,2.348-1.324,4.984-0.324,7.345
				C62.248,302.015,64.948,303.855,67.352,304.749z"/>
			<path style="opacity:0.2;enable-background:new    ;" d="M67.352,304.749c1.595,2.358,4.608,3.667,7.42,3.226
				c2.812-0.442,5.278-2.612,6.073-5.345c3.339,2.349,8.497,1.768,11.877-0.521c3.38-2.289,5.122-6.757,4.181-10.729
				c-0.941-3.972-4.501-7.185-8.549-7.715c-0.422-3.884-2.367-7.147-5.682-9.215c-3.315-2.068-7.589-2.519-11.263-1.189
				c-4.351-0.798-8.807,0.765-11.982,3.845c-2.262,2.194-3.769,5.309-3.505,8.449c0.263,3.14,2.555,6.156,5.649,6.752
				c-1.031,2.348-1.324,4.984-0.324,7.345C62.248,302.015,64.948,303.855,67.352,304.749z"/>
		</g>
		<g>
			<path style="fill:#407BFF;" d="M138.363,247.764c-2.691-0.927-5.887-0.166-7.87,1.876c-1.983,2.041-2.652,5.258-1.647,7.921
				c-4.08,0.126-7.856,3.688-9.185,7.548c-1.329,3.86-0.039,8.478,3.099,11.09c3.137,2.612,7.913,3.043,11.468,1.036
				c2.67,2.853,6.184,4.294,10.077,3.957c3.893-0.337,7.581-2.543,9.721-5.812c3.959-1.975,6.583-5.899,7.273-10.269
				c0.491-3.113-0.174-6.508-2.27-8.861c-2.096-2.353-5.74-3.389-8.572-2.008c-0.586-2.497-1.934-4.78-4.152-6.068
				C144.085,246.886,140.821,247.035,138.363,247.764z"/>
			<path style="opacity:0.1;enable-background:new    ;" d="M138.363,247.764c-2.691-0.927-5.887-0.166-7.87,1.876
				c-1.983,2.041-2.652,5.258-1.647,7.921c-4.08,0.126-7.856,3.688-9.185,7.548c-1.329,3.86-0.039,8.478,3.099,11.09
				c3.137,2.612,7.913,3.043,11.468,1.036c2.67,2.853,6.184,4.294,10.077,3.957c3.893-0.337,7.581-2.543,9.721-5.812
				c3.959-1.975,6.583-5.899,7.273-10.269c0.491-3.113-0.174-6.508-2.27-8.861c-2.096-2.353-5.74-3.389-8.572-2.008
				c-0.586-2.497-1.934-4.78-4.152-6.068C144.085,246.886,140.821,247.035,138.363,247.764z"/>
		</g>
		<g>
			<path style="fill:#407BFF;" d="M97.104,401.476c0,0,13.531-8.77,10.965-10.25c-2.566-1.48-11.592,7.278-11.592,7.278
				s9.971-14.591,7.508-17.515s-9.101,11.89-9.101,11.89s4.513-16.939,1.327-18.797c-3.186-1.858-4.341,16.976-4.341,16.976
				s-1.245-20.401-7.08-20.149c-5.835,0.253,2.66,20.149,2.66,20.149s-8.23-11.806-11.15-8.455
				c-2.92,3.351,9.292,12.764,9.292,12.764s-9.132-4.294-9.743-1.108c-0.611,3.186,10.075,6.571,10.075,6.571
				s-3.434,0.985-4.229,2.136l18.275,0.001C99.97,402.966,100.259,402.09,97.104,401.476z"/>
			<path style="opacity:0.6;fill:#FFFFFF;enable-background:new    ;" d="M97.104,401.476c0,0,13.531-8.77,10.965-10.25
				c-2.566-1.48-11.592,7.278-11.592,7.278s9.971-14.591,7.508-17.515s-9.101,11.89-9.101,11.89s4.513-16.939,1.327-18.797
				c-3.186-1.858-4.341,16.976-4.341,16.976s-1.245-20.401-7.08-20.149c-5.835,0.253,2.66,20.149,2.66,20.149
				s-8.23-11.806-11.15-8.455c-2.92,3.351,9.292,12.764,9.292,12.764s-9.132-4.294-9.743-1.108
				c-0.611,3.186,10.075,6.571,10.075,6.571s-3.434,0.985-4.229,2.136l18.275,0.001C99.97,402.966,100.259,402.09,97.104,401.476z"
				/>
		</g>
	</g>
</g>
<g id="Cabin">
	<g>
		<g>
			<polygon style="fill:#263238;" points="327.248,228.87 284.577,301.233 95.02,301.233 137.691,228.87 			"/>
			<polygon style="opacity:0.5;enable-background:new    ;" points="327.248,228.87 284.577,301.233 97.872,301.233 140.543,228.87 
							"/>
		</g>
		<g>
			<rect x="91.543" y="298.296" style="fill:#263238;" width="189.626" height="2.938"/>
			<rect x="91.543" y="298.296" style="opacity:0.2;fill:#FFFFFF;enable-background:new    ;" width="2.853" height="2.853"/>
		</g>
		<g>
			<polygon style="fill:#407BFF;" points="184.617,236.357 184.617,415.527 108.931,415.527 108.931,297.84 145.186,236.357 			"/>
			<path style="opacity:0.3;fill:#FFFFFF;enable-background:new    ;" d="M184.622,236.352v179.174H108.93V297.839l2.833-4.801
				l0.504-0.856l1.036-1.768c0.01-0.009,0.01-0.009,0-0.019l0.361-0.59l1.864-3.157l0.504-0.856l0.846-1.436l0.456-0.732
				c0-0.019,0.009-0.029,0.009-0.048l1.958-3.328l0.504-0.856l3.271-5.552l0.504-0.856l0.732-1.246c0,0,0-0.01,0.01-0.019
				l0.162-0.266l2.367-4.012l0.494-0.837l1.008-1.664c-0.009-0.019,0-0.029,0-0.038l0.466-0.799l1.797-3.052l0.504-0.856
				l3.271-5.543l0.504-0.856l1.702-2.89l0.447-0.751l1.122-1.902l0.494-0.846l1.331-2.253l0.323-0.551l1.616-2.738l0.504-0.856
				l2.748-4.659H184.622z"/>
			
				<rect x="184.616" y="288.766" transform="matrix(-1 -1.224647e-16 1.224647e-16 -1 537.7423 704.2951)" style="fill:#407BFF;" width="168.511" height="126.763"/>
			
				<rect x="184.616" y="288.766" transform="matrix(-1 -1.224647e-16 1.224647e-16 -1 537.7423 704.2951)" style="opacity:0.5;fill:#FFFFFF;enable-background:new    ;" width="168.511" height="126.763"/>
			<g style="opacity:0.3;">
				<rect x="109.087" y="305.935" width="244.04" height="0.502"/>
				<rect x="109.087" y="311.136" width="244.04" height="0.502"/>
				<path d="M109.087,316.839h14.703c-1.296,0.076-2.589,0.182-3.876,0.333c-2.422,0.27-4.843,0.588-7.284,0.421
					c2.426,0.344,4.895,0.149,7.32-0.057c2.428-0.208,4.855-0.347,7.291-0.353c2.434-0.054,4.869,0.017,7.306,0.084l7.316,0.236
					c-2.429-0.242-4.861-0.459-7.299-0.6c-0.501-0.03-1.003-0.042-1.504-0.065h220.069v-0.501h-244.04V316.839z"/>
				<rect x="109.087" y="326.739" width="244.04" height="0.502"/>
				<rect x="109.087" y="331.94" width="244.04" height="0.502"/>
				<rect x="109.087" y="342.342" width="244.04" height="0.502"/>
				<rect x="109.087" y="352.744" width="244.04" height="0.502"/>
				<rect x="109.087" y="357.945" width="244.04" height="0.502"/>
				<path d="M109.087,363.648h76.008c1.182,0.121,2.383,0.072,3.55,0.131c1.661,0.076,3.317,0.275,4.973,0.519
					c1.66,0.204,3.328,0.444,5.014,0.502c1.682,0.069,3.389-0.059,5.009-0.506c-1.659,0.252-3.33,0.284-4.989,0.141
					c-1.66-0.133-3.313-0.366-4.972-0.608c-0.503-0.062-1.008-0.122-1.513-0.179h160.959v-0.501h-244.04V363.648z"/>
				<rect x="109.087" y="368.348" width="244.04" height="0.502"/>
				<rect x="109.087" y="373.549" width="244.04" height="0.502"/>
				<rect x="109.087" y="378.75" width="244.04" height="0.502"/>
				<rect x="109.087" y="383.951" width="244.04" height="0.502"/>
				<rect x="109.087" y="389.152" width="244.04" height="0.502"/>
				<rect x="109.087" y="394.353" width="244.04" height="0.502"/>
				<path d="M167.796,329.501c1.584-0.18,3.167-0.335,4.756-0.311c1.59,0.003,3.182,0.143,4.771,0.283
					c-1.581-0.216-3.164-0.433-4.765-0.513c-1.603-0.074-3.208,0.044-4.797,0.179c-3.174,0.322-6.348,0.452-9.536,0.4l-9.569-0.146
					c-1.597-0.002-3.196,0.03-4.792,0.1c-1.596,0.092-3.187,0.243-4.769,0.448c6.371-0.514,12.736,0.003,19.127,0.072
					C161.414,330.027,164.629,329.902,167.796,329.501z"/>
				<path d="M284.916,333.311c1.583-0.18,3.166-0.335,4.755-0.311c1.59,0.003,3.182,0.143,4.771,0.283
					c-1.581-0.216-3.164-0.433-4.765-0.513c-1.603-0.074-3.207,0.044-4.797,0.179c-3.174,0.322-6.348,0.452-9.536,0.4l-9.569-0.146
					c-1.597-0.002-3.195,0.03-4.792,0.1c-1.596,0.092-3.187,0.243-4.77,0.448c6.371-0.514,12.737,0.003,19.127,0.072
					C278.534,333.837,281.749,333.712,284.916,333.311z"/>
				<path d="M124.502,326.455c1.691-0.126,3.311-0.567,4.932-0.911c1.612-0.378,3.269-0.397,4.928-0.363l4.995,0.188
					c3.332,0.123,6.666,0.215,10.001,0.283c-3.327-0.242-6.655-0.46-9.984-0.647c-1.665-0.102-3.326-0.188-4.999-0.256
					c-1.666-0.049-3.379-0.043-5.024,0.327c-1.635,0.36-3.246,0.814-4.888,0.948c-1.645,0.165-3.306,0.134-4.966,0.072l-9.982-0.612
					c3.319,0.35,6.627,0.728,9.962,0.977C121.142,326.582,122.825,326.6,124.502,326.455z"/>
				<path d="M128.212,313.09c-1.654-0.257-3.328-0.285-4.982-0.143c-1.664,0.133-3.318,0.371-4.973,0.608
					c-1.664,0.209-3.337,0.418-5.03,0.409c-1.455,0.009-2.871-0.162-4.298-0.048v-0.086c1.407-0.247,2.871-0.152,4.288-0.228
					c1.664-0.076,3.318-0.276,4.973-0.523c1.664-0.2,3.328-0.437,5.02-0.494C124.894,312.509,126.595,312.643,128.212,313.09z"/>
				<path d="M124.683,309.644c-1.974-0.143-3.951-0.252-5.936-0.218c1.96,0.337,3.928,0.531,5.9,0.691
					c1.973,0.142,3.949,0.251,5.937,0.218C128.626,309.999,126.656,309.805,124.683,309.644z"/>
				<path d="M164.367,302.981l0.909,0.007c0.289-0.007,0.577,0.087,0.927,0.104c0.693-0.049,1.26-0.203,1.869-0.255
					c0.607-0.061,1.221-0.064,1.849-0.048c-0.595-0.21-1.228-0.302-1.863-0.316c-0.637-0.032-1.29,0.113-1.835,0.144
					c-0.272-0.003-0.591-0.096-0.926-0.079c-0.327,0.018-0.651,0.025-0.954,0.077c-0.213,0.027-0.425,0.058-0.638,0.089
					c-0.537-2.273-0.328-4.61-0.053-6.899c0.283-2.32,0.643-4.671,0.477-7.057c-0.101-1.189-0.335-2.347-0.52-3.499
					c-0.189-1.151-0.293-2.313-0.38-3.479c-0.148-2.333-0.133-4.683-0.14-7.031c-0.167,2.342-0.308,4.691-0.223,7.05
					c0.031,1.179,0.147,2.357,0.317,3.526c0.173,1.167,0.39,2.317,0.473,3.471c0.198,2.311-0.157,4.642-0.368,6.981
					c-0.215,2.304-0.297,4.706,0.411,6.939c-0.403,0.058-0.805,0.123-1.206,0.214C163.122,302.978,163.745,302.983,164.367,302.981z
					"/>
				<path d="M112.913,303.786c-0.492-0.436-1.127-0.669-1.769-0.764c-0.644-0.08-1.318-0.026-1.909,0.261
					c0.648,0.08,1.244,0.119,1.844,0.21C111.682,303.567,112.267,303.69,112.913,303.786z"/>
				<path d="M114.702,359.887c1.974-0.06,3.946-0.155,5.919-0.393c-1.977-0.134-3.955-0.125-5.931-0.081
					c-1.976,0.062-3.951,0.157-5.919,0.393C110.753,359.938,112.728,359.929,114.702,359.887z"/>
				<path d="M172.314,355.255c1.666-0.021,3.34,0.111,5.035,0.106c-1.652-0.362-3.335-0.582-5.038-0.581
					c-0.85,0.014-1.705,0.071-2.542,0.243c-0.845,0.157-1.626,0.45-2.469,0.535c0.851,0.113,1.704-0.099,2.524-0.174
					C170.651,355.301,171.481,355.259,172.314,355.255z"/>
				<path d="M136.227,356.027c-2.348,0.009-4.697,0-7.036,0.143c-1.16,0.086-2.329,0.19-3.48,0.38
					c-1.15,0.19-2.311,0.418-3.499,0.523c-2.387,0.162-4.735-0.2-7.055-0.475c-2.063-0.257-4.164-0.447-6.228-0.086v-0.057
					c2.035-0.504,4.193-0.418,6.266-0.228c2.339,0.209,4.668,0.571,6.979,0.371c1.16-0.086,2.311-0.304,3.47-0.475
					c1.169-0.171,2.348-0.285,3.527-0.314C131.53,355.722,133.878,355.865,136.227,356.027z"/>
				<path d="M149.991,360.763c1.189-0.101,2.347-0.336,3.5-0.52c1.151-0.189,2.313-0.293,3.479-0.38
					c2.333-0.148,4.683-0.133,7.031-0.14c-2.342-0.167-4.691-0.309-7.05-0.223c-1.179,0.031-2.357,0.147-3.527,0.317
					c-1.166,0.173-2.317,0.39-3.471,0.473c-2.311,0.198-4.641-0.157-6.981-0.367c-2.329-0.218-4.76-0.302-7.013,0.432
					c2.297-0.56,4.661-0.346,6.975-0.069C145.255,360.568,147.605,360.927,149.991,360.763z"/>
				<path d="M118.568,351.833l1.42-0.016c0.474-0.022,0.94-0.031,1.411,0.037c-0.914-0.31-1.882-0.286-2.818-0.386
					c-0.943-0.076-1.888-0.116-2.833-0.155c-1.869-0.044-3.838-0.164-5.658,0.459c1.884-0.255,3.746-0.045,5.642,0.016
					C116.677,351.816,117.622,351.843,118.568,351.833z"/>
				<path d="M178.714,309.688c-0.875-0.121-1.738-0.099-2.6-0.044c-0.86,0.074-1.717,0.181-2.564,0.43
					c0.874,0.12,1.738,0.099,2.6,0.044C177.01,310.045,177.867,309.938,178.714,309.688z"/>
				<path d="M147.668,366.371c-1.442,0.032-2.883,0.097-4.321,0.307c1.445,0.163,2.887,0.183,4.329,0.168
					c1.441-0.033,2.883-0.099,4.321-0.307C150.552,366.378,149.11,366.358,147.668,366.371z"/>
				<path d="M167.824,340.966c-2.579-0.233-5.167-0.283-7.754-0.347c-2.588-0.009-5.176-0.034-7.761,0.128
					c2.587,0.234,5.17,0.283,7.754,0.347C162.648,341.103,165.231,341.126,167.824,340.966z"/>
				<path d="M154.491,337.144c-1.892-0.704-3.936-0.827-5.923-0.865c-2.054-0.029-4.089,0.038-6.142-0.143
					c2.006,0.551,4.098,0.57,6.142,0.618c1.911,0.019,3.803,0.066,5.686,0.39h-35.531c-0.646-0.257-1.369-0.352-2.054-0.285
					c-0.779,0.009-1.502,0.105-2.263,0.133c-0.884,0.066-1.768,0.104-2.653,0.152h-2.662v0.494h244.036v-0.494H154.491z"/>
				<path d="M174.684,320.169c-1.506-0.365-3.08-0.247-4.59-0.122c-1.519,0.142-3.009,0.301-4.544,0.214
					c1.482,0.459,3.074,0.386,4.586,0.259C171.66,320.376,173.148,320.175,174.684,320.169z"/>
				<path d="M124.754,343.783c-1.952-0.08-3.896-0.019-5.839,0.076c-1.941,0.113-3.881,0.26-5.813,0.551
					c1.952,0.082,3.896,0.02,5.839-0.076C120.882,344.22,122.822,344.072,124.754,343.783z"/>
				<path d="M239.548,347.546c-1.968-0.133-3.936-0.181-5.904-0.181c-2.244,0.029-4.478,0.105-6.722,0.181h-10.744
					c-0.551-0.028-1.103-0.057-1.654-0.105c0.304,0.038,0.608,0.067,0.913,0.105h-63.578c-1.113-0.2-2.234-0.342-3.356-0.437
					c-2.082-0.152-4.174-0.162-6.256,0.086c1.873,0.114,3.737,0.209,5.591,0.352h-38.744v0.494h44.297
					c0.428,0.047,0.846,0.095,1.274,0.133c-0.171-0.047-0.342-0.086-0.514-0.133h86.74c0.77,0.057,1.531,0.124,2.301,0.2
					c1.588,0.143,3.195,0.257,4.792,0.181c1.246-0.057,2.482-0.209,3.717-0.38h101.429v-0.494H239.548z M247.981,348.192
					c-1.055,0.019-2.111-0.048-3.157-0.152h6.247C250.035,348.126,249.008,348.192,247.981,348.192z"/>
				<path d="M153.769,309.356c3.188-0.053,6.361,0.077,9.536,0.4c1.59,0.135,3.194,0.253,4.797,0.179
					c1.601-0.08,3.184-0.298,4.765-0.513c-1.589,0.14-3.181,0.279-4.771,0.282c-1.589,0.024-3.172-0.131-4.756-0.311
					c-3.167-0.401-6.382-0.526-9.575-0.512c-6.391,0.07-12.757,0.586-19.128,0.072c1.582,0.206,3.174,0.356,4.77,0.448
					c1.596,0.07,3.195,0.102,4.792,0.1L153.769,309.356z"/>
				<path d="M199.887,351.358c1.642,0.134,3.253,0.588,4.888,0.948c1.645,0.371,3.358,0.377,5.024,0.327
					c1.673-0.068,3.333-0.154,4.999-0.256c3.329-0.187,6.657-0.405,9.984-0.647c-3.335,0.068-6.669,0.16-10.001,0.283l-4.995,0.188
					c-1.659,0.034-3.316,0.015-4.928-0.363c-1.621-0.344-3.241-0.785-4.932-0.911c-1.677-0.145-3.359-0.127-5.027-0.006
					c-3.334,0.249-6.643,0.627-9.962,0.977l9.982-0.612C196.581,351.223,198.242,351.193,199.887,351.358z"/>
				<path d="M294.884,324.346c1.642,0.134,3.253,0.588,4.888,0.948c1.645,0.371,3.358,0.377,5.024,0.327
					c1.673-0.068,3.334-0.154,4.999-0.256c3.329-0.187,6.657-0.405,9.984-0.647c-3.335,0.068-6.669,0.16-10.001,0.283l-4.995,0.188
					c-1.659,0.034-3.315,0.015-4.927-0.363c-1.621-0.344-3.241-0.785-4.932-0.911c-1.677-0.145-3.359-0.127-5.027-0.006
					c-3.334,0.25-6.643,0.628-9.962,0.977l9.982-0.612C291.577,324.211,293.239,324.181,294.884,324.346z"/>
				<path d="M249.559,360.294c1.642,0.134,3.253,0.588,4.888,0.948c1.645,0.371,3.358,0.377,5.024,0.327
					c1.673-0.067,3.333-0.154,4.999-0.256c3.329-0.187,6.657-0.405,9.984-0.647c-3.335,0.068-6.669,0.16-10.001,0.283l-4.994,0.188
					c-1.659,0.034-3.316,0.015-4.928-0.363c-1.621-0.344-3.241-0.785-4.932-0.911c-1.677-0.145-3.359-0.127-5.027-0.006
					c-3.334,0.25-6.643,0.628-9.962,0.977l9.982-0.612C246.252,360.16,247.914,360.13,249.559,360.294z"/>
				<path d="M282.812,355.896l-5.69-0.052c1.872,0.375,3.783,0.515,5.689,0.527c1.906-0.006,3.817-0.139,5.691-0.505
					L282.812,355.896z"/>
				<path d="M268.016,376.74l-5.69-0.052c1.872,0.375,3.782,0.515,5.689,0.527c1.906-0.006,3.817-0.139,5.691-0.505L268.016,376.74z
					"/>
				<path d="M334.484,328.725l-5.69-0.052c1.872,0.375,3.783,0.515,5.689,0.527c1.906-0.006,3.817-0.139,5.691-0.505
					L334.484,328.725z"/>
				<path d="M188.899,355.768c-1.411,0.009-2.821,0.052-4.231,0.237c1.41,0.185,2.821,0.228,4.231,0.238
					c1.411-0.009,2.821-0.051,4.231-0.238C191.72,355.819,190.309,355.776,188.899,355.768z"/>
				<path d="M202.66,360.674c2.446,0.014,4.89-0.049,7.328-0.195c2.439-0.14,4.87-0.358,7.3-0.6l-7.316,0.236
					c-2.437,0.068-4.872,0.138-7.306,0.084c-2.435-0.006-4.863-0.145-7.291-0.353c-2.425-0.206-4.894-0.401-7.32-0.057
					c2.441-0.167,4.862,0.152,7.284,0.421C197.766,360.495,200.215,360.631,202.66,360.674z"/>
				<path d="M200.072,367.265c-1.972,0.16-3.94,0.354-5.9,0.691c1.986,0.034,3.962-0.075,5.936-0.218
					c1.973-0.161,3.943-0.355,5.9-0.691C204.02,367.014,202.045,367.123,200.072,367.265z"/>
				<path d="M240.209,385.459c-1.972,0.16-3.94,0.354-5.9,0.691c1.986,0.034,3.963-0.075,5.936-0.218
					c1.973-0.161,3.943-0.355,5.9-0.691C244.158,385.208,242.182,385.317,240.209,385.459z"/>
				<path d="M254.65,397.65c-0.609-0.052-1.176-0.206-1.869-0.255c-0.35,0.018-0.638,0.111-0.927,0.104l-0.909,0.007
					c-0.623-0.002-1.246,0.003-1.873,0.062c0.614,0.139,1.231,0.225,1.849,0.303c0.303,0.052,0.627,0.06,0.954,0.077
					c0.334,0.017,0.654-0.077,0.926-0.079c0.545,0.031,1.198,0.176,1.835,0.144c0.636-0.014,1.268-0.107,1.863-0.316
					C255.871,397.714,255.257,397.711,254.65,397.65z"/>
				<path d="M190.177,376.816c-0.646,0.096-1.23,0.218-1.833,0.293c-0.601,0.09-1.197,0.129-1.844,0.21
					c0.591,0.287,1.265,0.34,1.909,0.261C189.05,377.485,189.685,377.253,190.177,376.816z"/>
				<path d="M273.674,391.871c-0.646,0.096-1.23,0.218-1.833,0.293c-0.601,0.091-1.196,0.13-1.844,0.21
					c0.591,0.287,1.265,0.341,1.909,0.261C272.547,392.54,273.183,392.308,273.674,391.871z"/>
				<path d="M196.046,317.889c-1.973-0.238-3.945-0.333-5.919-0.393c-1.974-0.043-3.948-0.052-5.931,0.081
					c1.967,0.237,3.943,0.332,5.919,0.393C192.091,318.014,194.069,318.023,196.046,317.889z"/>
				<path d="M219.445,322.427c-1.695-0.005-3.368,0.127-5.035,0.106c-0.833-0.004-1.663-0.046-2.491-0.13
					c-0.82-0.075-1.673-0.287-2.524-0.174c0.843,0.086,1.624,0.379,2.469,0.536c0.837,0.172,1.692,0.229,2.542,0.243
					C216.111,323.01,217.793,322.789,219.445,322.427z"/>
				<path d="M341.658,366.193c-1.694-0.005-3.368,0.127-5.035,0.106c-0.833-0.004-1.663-0.046-2.491-0.13
					c-0.819-0.075-1.673-0.287-2.524-0.174c0.843,0.086,1.624,0.379,2.469,0.536c0.837,0.172,1.692,0.229,2.542,0.243
					C338.323,366.775,340.005,366.555,341.658,366.193z"/>
				<path d="M211.65,321.352c-2.349-0.007-4.698,0.007-7.031-0.14c-1.166-0.087-2.328-0.191-3.479-0.38
					c-1.153-0.185-2.311-0.419-3.499-0.52c-2.386-0.165-4.737,0.194-7.057,0.478c-2.314,0.278-4.678,0.491-6.975-0.069
					c2.253,0.734,4.684,0.65,7.014,0.432c2.34-0.21,4.67-0.566,6.981-0.367c1.154,0.084,2.305,0.301,3.471,0.473
					c0.965,0.141,1.938,0.231,2.911,0.28h-54.678c-1.39-0.184-2.794-0.259-4.196-0.263c-1.356,0.009-2.712,0.087-4.056,0.263
					h-25.187c0.612-0.036,1.225-0.08,1.837-0.161c-1.411-0.186-2.821-0.229-4.232-0.238c-1.41,0.009-2.821,0.053-4.231,0.238
					c0.615,0.081,1.23,0.125,1.846,0.161h-2.001v0.502h244.04v-0.502H208.528C209.57,321.492,210.611,321.426,211.65,321.352z"/>
				<path d="M315.161,350.674c1.154,0.084,2.305,0.301,3.471,0.473c1.169,0.17,2.348,0.286,3.526,0.317
					c2.358,0.086,4.708-0.056,7.05-0.223c-2.349-0.007-4.698,0.007-7.032-0.141c-1.166-0.087-2.327-0.191-3.479-0.38
					c-1.153-0.185-2.311-0.419-3.499-0.52c-2.387-0.165-4.737,0.195-7.057,0.477c-2.314,0.278-4.678,0.491-6.975-0.069
					c2.253,0.734,4.684,0.65,7.014,0.432C310.519,350.831,312.849,350.476,315.161,350.674z"/>
				<path d="M194.007,325.915c0.935-0.101,1.904-0.076,2.818-0.386c-0.471,0.068-0.937,0.059-1.411,0.037l-1.42-0.016
					c-0.946-0.01-1.892,0.017-2.837,0.045c-1.896,0.061-3.758,0.271-5.642,0.016c1.821,0.623,3.789,0.503,5.659,0.459
					C192.119,326.031,193.063,325.991,194.007,325.915z"/>
				<path d="M230.086,329.21c-2.077,0.202-4.132,0.432-6.198,0.586c-2.064,0.171-4.131,0.267-6.213,0.394
					c2.073,0.245,4.17,0.236,6.251,0.08C226.005,330.096,228.076,329.776,230.086,329.21z"/>
				<path d="M349.649,355.42c-2.077,0.202-4.132,0.432-6.198,0.586c-2.065,0.171-4.131,0.267-6.214,0.394
					c2.074,0.245,4.17,0.236,6.251,0.08C345.567,356.306,347.639,355.986,349.649,355.42z"/>
				<path d="M191.996,314.799c-0.847-0.25-1.704-0.357-2.564-0.43c-0.861-0.055-1.725-0.076-2.6,0.044
					c0.847,0.249,1.704,0.356,2.564,0.43C190.258,314.899,191.122,314.921,191.996,314.799z"/>
				<path d="M193.322,310.294c-1.442-0.015-2.884,0.005-4.329,0.168c1.439,0.209,2.88,0.275,4.322,0.307
					c1.442,0.014,2.884-0.006,4.329-0.168C196.205,310.393,194.764,310.327,193.322,310.294z"/>
				<path d="M243.249,336.416c-2.592-0.16-5.176-0.136-7.76-0.128c-2.584,0.064-5.167,0.113-7.754,0.347
					c2.584,0.161,5.173,0.137,7.761,0.128C238.082,336.698,240.67,336.648,243.249,336.416z"/>
				<path d="M336.551,344.336c-2.593-0.16-5.176-0.136-7.76-0.128c-2.584,0.064-5.167,0.113-7.754,0.347
					c2.584,0.161,5.173,0.137,7.761,0.128C331.384,344.619,333.972,344.569,336.551,344.336z"/>
				<path d="M223.99,340.631c-2.04,0.042-4.137,0.065-6.135,0.61c2.052-0.177,4.084-0.112,6.143-0.135
					c2.044-0.039,4.163-0.171,6.096-0.928C228.069,340.571,226.039,340.606,223.99,340.631z"/>
				<path d="M243.443,344.202c-1.536-0.006-3.024-0.207-4.548-0.351c-1.512-0.127-3.104-0.199-4.586,0.259
					c1.535-0.087,3.024,0.072,4.544,0.214C240.363,344.449,241.938,344.566,243.443,344.202z"/>
				<path d="M305.733,366.063c-1.536-0.006-3.024-0.207-4.548-0.351c-1.512-0.127-3.104-0.199-4.586,0.259
					c1.535-0.087,3.024,0.072,4.544,0.214C302.653,366.31,304.227,366.428,305.733,366.063z"/>
				<path d="M194.344,340.168c-0.753,0.123-1.486,0.136-2.227-0.006c-0.729-0.097-1.497-0.204-2.251-0.249
					c-1.515-0.087-3.043-0.045-4.538,0.235c1.517,0.09,3.012,0.134,4.508,0.239c0.753,0.035,1.482,0.125,2.258,0.139
					C192.85,340.595,193.653,340.483,194.344,340.168z"/>
				<path d="M200.179,333.599c-1.932-0.289-3.872-0.437-5.813-0.551c-1.943-0.096-3.887-0.158-5.839-0.076
					c1.932,0.29,3.872,0.438,5.813,0.551C196.283,333.618,198.227,333.68,200.179,333.599z"/>
				<polygon points="116.032,285.793 115.529,286.648 115.529,300.34 116.032,300.34 				"/>
				<path d="M119.807,289.957c0.099,0.942,0.222,1.879,0.337,2.814c0.244,1.656,0.443,3.312,0.519,4.973
					c0.083,1.651-0.058,3.373,0.389,5.007c-0.251-1.665-0.018-3.326-0.025-5.015c0.002-1.69-0.208-3.366-0.412-5.029
					c-0.242-1.659-0.475-3.312-0.608-4.972c-0.143-1.659-0.111-3.329,0.141-4.989c-0.153,0.556-0.257,1.125-0.34,1.697v-5.051
					l-0.504,0.856v20.09h0.504V289.957z"/>
				<polygon points="123.581,272.986 123.078,273.841 123.078,300.34 123.581,300.34 				"/>
				<polygon points="127.347,266.606 126.852,267.443 126.852,300.34 127.347,300.34 				"/>
				<polygon points="131.121,260.198 130.617,261.053 130.617,300.34 131.121,300.34 				"/>
				<polygon points="134.896,253.799 134.392,254.655 134.392,300.34 134.896,300.34 				"/>
				<polygon points="138.661,247.41 138.166,248.256 138.166,300.34 138.661,300.34 				"/>
				<polygon points="142.435,241.011 141.931,241.867 141.931,300.34 142.435,300.34 				"/>
				<rect x="145.706" y="236.352" width="0.504" height="63.987"/>
				<rect x="149.481" y="236.352" width="0.504" height="63.987"/>
				<rect x="153.255" y="236.352" width="0.494" height="63.987"/>
				<rect x="157.02" y="236.352" width="0.504" height="63.987"/>
				<rect x="160.795" y="236.352" width="0.504" height="63.987"/>
				<rect x="164.57" y="236.352" width="0.494" height="63.987"/>
				<rect x="168.335" y="236.352" width="0.504" height="63.987"/>
				<rect x="172.109" y="236.352" width="0.504" height="63.987"/>
				<rect x="175.884" y="236.352" width="0.494" height="63.987"/>
				<rect x="179.649" y="236.352" width="0.504" height="63.987"/>
				<polygon points="112.267,292.182 111.763,293.038 111.763,300.34 112.267,300.34 				"/>
				<path d="M136.997,271.873c-0.513-6.37,0.009-12.74,0.076-19.13c0-0.865,0-1.721-0.029-2.586l-0.447,0.751
					c0.019,0.609,0.009,1.227,0,1.835l-0.143,9.565c0,1.597,0.029,3.195,0.095,4.792
					C136.645,268.698,136.797,270.285,136.997,271.873z"/>
				<path d="M133.084,286.503c0.165,1.645,0.134,3.306,0.072,4.967l-0.612,9.982c0.35-3.319,0.728-6.628,0.977-9.962
					c0.121-1.668,0.139-3.35-0.006-5.027c-0.126-1.691-0.567-3.311-0.911-4.932c-0.378-1.612-0.397-3.269-0.363-4.928l0.188-4.995
					c0.124-3.332,0.215-6.666,0.284-10.001c-0.242,3.327-0.46,6.655-0.647,9.984c-0.102,1.666-0.188,3.327-0.256,4.999
					c-0.049,1.666-0.043,3.379,0.327,5.024C132.496,283.249,132.95,284.86,133.084,286.503z"/>
				<path d="M128.811,265.855l0.01-1.749l-0.466,0.799c0,0.01-0.009,0.019,0,0.038c-0.009,0.304-0.019,0.608-0.019,0.913
					c0.01,1.902,0.152,3.813,0.523,5.686L128.811,265.855z"/>
				<path d="M128.674,297.491c-0.008-1.41-0.051-2.821-0.238-4.232c-0.186,1.411-0.229,2.821-0.238,4.232
					c0.01,1.411,0.053,2.821,0.238,4.232C128.621,300.312,128.664,298.901,128.674,297.491z"/>
				<path d="M124.656,298.333c0.342-2.424,0.143-4.897-0.057-7.321c-0.209-2.424-0.352-4.849-0.361-7.292
					c-0.048-2.434,0.019-4.868,0.086-7.302l0.162-4.963l-0.162,0.266c-0.01,0.009-0.01,0.019-0.01,0.019
					c-0.143,1.55-0.257,3.109-0.352,4.659c-0.143,2.444-0.209,4.887-0.19,7.33c0.038,2.444,0.171,4.897,0.456,7.321
					C124.504,293.475,124.817,295.89,124.656,298.333z"/>
				<path d="M117.335,283.625l-0.456,0.732c-0.067,0.637-0.124,1.284-0.171,1.921c-0.152,1.978-0.257,3.955-0.219,5.942
					c0.333-1.959,0.533-3.927,0.685-5.904C117.24,285.422,117.297,284.519,117.335,283.625z"/>
				<path d="M113.341,292.42c0.019,0.323,0.029,0.647,0.086,0.951c0.076,0.618,0.162,1.236,0.304,1.854
					c0.057-0.628,0.057-1.255,0.057-1.873l0.009-0.913c-0.009-0.285,0.085-0.58,0.104-0.922c-0.048-0.637-0.181-1.16-0.238-1.711
					l-0.361,0.59c0.01,0.009,0.01,0.009,0,0.019c0.038,0.38,0.104,0.751,0.124,1.074
					C113.427,291.763,113.332,292.087,113.341,292.42z"/>
				<path d="M110.551,299.884c0.075-0.603,0.198-1.187,0.293-1.833c-0.436,0.492-0.669,1.127-0.764,1.769
					c-0.08,0.644-0.026,1.318,0.261,1.909C110.422,301.081,110.461,300.485,110.551,299.884z"/>
				<path d="M166.865,302.194c0.133-1.983,0.124-3.957,0.081-5.931c-0.06-1.974-0.155-3.946-0.393-5.919
					c-0.134,1.977-0.125,3.955-0.081,5.931C166.533,298.251,166.628,300.226,166.865,302.194z"/>
				<path d="M162.212,276.994c0.113-0.851-0.099-1.704-0.174-2.524c-0.084-0.828-0.126-1.658-0.13-2.491
					c-0.021-1.666,0.111-3.34,0.106-5.035c-0.362,1.652-0.582,3.335-0.581,5.038c0.014,0.85,0.071,1.705,0.243,2.542
					C161.833,275.37,162.127,276.151,162.212,276.994z"/>
				<path d="M158.847,295.232c0.028-0.945,0.055-1.89,0.045-2.837l-0.016-1.42c-0.022-0.474-0.031-0.94,0.037-1.411
					c-0.31,0.914-0.286,1.883-0.386,2.818c-0.076,0.943-0.116,1.888-0.155,2.833c-0.044,1.869-0.164,3.838,0.459,5.658
					C158.576,298.99,158.786,297.128,158.847,295.232z"/>
				<path d="M154.646,262.502c0.154-2.066,0.383-4.122,0.586-6.198c-0.566,2.01-0.886,4.082-1.059,6.161
					c-0.156,2.081-0.166,4.177,0.08,6.251C154.379,266.632,154.474,264.566,154.646,262.502z"/>
				<path d="M170.029,299.557c0.12-0.874,0.099-1.738,0.044-2.6c-0.073-0.86-0.18-1.718-0.43-2.564
					c-0.121,0.875-0.1,1.738-0.044,2.6C169.673,297.853,169.78,298.71,170.029,299.557z"/>
				<path d="M174.147,293.067c-0.033-1.442-0.099-2.883-0.307-4.321c-0.162,1.445-0.182,2.887-0.168,4.329
					c0.032,1.442,0.097,2.883,0.307,4.321C174.142,295.952,174.161,294.509,174.147,293.067z"/>
				<path d="M148.154,250.901c0.008-2.585,0.032-5.168-0.128-7.76c-0.233,2.579-0.283,5.167-0.347,7.754
					c-0.009,2.588-0.034,5.176,0.128,7.76C148.041,256.068,148.089,253.485,148.154,250.901z"/>
				<path d="M144.264,256.296c-0.757,1.932-0.89,4.052-0.928,6.096c-0.024,2.058,0.042,4.091-0.136,6.143
					c0.545-1.999,0.569-4.095,0.61-6.135C143.835,260.351,143.87,258.32,144.264,256.296z"/>
				<path d="M140.334,252.078c0.456-1.483,0.38-3.071,0.257-4.583c-0.095-0.97-0.209-1.921-0.276-2.89l-0.323,0.551
					c0,0.799,0.057,1.597,0.123,2.377C140.258,249.055,140.42,250.547,140.334,252.078z"/>
				<path d="M143.915,294.295c0.015,0.776,0.105,1.505,0.139,2.258c0.105,1.496,0.149,2.991,0.239,4.508
					c0.28-1.495,0.323-3.023,0.235-4.538c-0.045-0.754-0.152-1.522-0.249-2.251c-0.142-0.74-0.129-1.474-0.006-2.227
					C143.959,292.737,143.846,293.539,143.915,294.295z"/>
				<path d="M151.469,297.862c0.081-1.952,0.02-3.896-0.076-5.839c-0.114-1.941-0.261-3.881-0.551-5.813
					c-0.08,1.952-0.019,3.896,0.076,5.839C151.031,293.991,151.179,295.93,151.469,297.862z"/>
			</g>
		</g>
		<g>
			<rect x="251.087" y="317.676" style="fill:#407BFF;" width="15.986" height="35.887"/>
			
				<rect x="242.562" y="329.053" transform="matrix(-1.836970e-16 1 -1 -1.836970e-16 594.6984 76.5397)" style="opacity:0.5;enable-background:new    ;" width="33.035" height="13.133"/>
			<rect x="258.515" y="318.102" style="fill:#407BFF;" width="1.128" height="35.033"/>
			<g>
				<rect x="251.557" y="328.875" style="fill:#407BFF;" width="15.045" height="1.128"/>
				<rect x="251.557" y="341.235" style="fill:#407BFF;" width="15.045" height="1.128"/>
			</g>
		</g>
		<g>
			<g>
				<rect x="135.324" y="264.883" style="fill:#407BFF;" width="15.986" height="24.478"/>
				
					<rect x="132.504" y="270.555" transform="matrix(-1.836970e-16 1 -1 -1.836970e-16 420.4391 133.8049)" style="opacity:0.5;enable-background:new    ;" width="21.626" height="13.133"/>
				<rect x="142.753" y="265.31" style="fill:#407BFF;" width="1.128" height="23.624"/>
				<rect x="135.795" y="276.558" style="fill:#407BFF;" width="15.045" height="1.128"/>
			</g>
			<g>
				<rect x="156.009" y="317.676" style="fill:#407BFF;" width="15.986" height="35.887"/>
				
					<rect x="147.484" y="329.053" transform="matrix(-1.836970e-16 1 -1 -1.836970e-16 499.6205 171.6176)" style="opacity:0.5;enable-background:new    ;" width="33.035" height="13.133"/>
				<rect x="163.437" y="318.102" style="fill:#407BFF;" width="1.128" height="35.033"/>
				<g>
					<rect x="156.479" y="328.875" style="fill:#407BFF;" width="15.045" height="1.128"/>
					<rect x="156.479" y="341.235" style="fill:#407BFF;" width="15.045" height="1.128"/>
				</g>
			</g>
			<g>
				<rect x="183.199" y="298.807" style="fill:#407BFF;" width="2.938" height="100.334"/>
				<rect x="108.657" y="298.807" style="fill:#407BFF;" width="2.938" height="100.334"/>
				<rect x="108.657" y="298.296" style="fill:#407BFF;" width="244.771" height="2.938"/>
				<rect x="351.106" y="298.807" style="fill:#407BFF;" width="2.938" height="100.334"/>
			</g>
			<g>
				<rect x="119.879" y="317.676" style="fill:#407BFF;" width="15.986" height="35.887"/>
				
					<rect x="111.354" y="329.053" transform="matrix(-1.836970e-16 1 -1 -1.836970e-16 463.4911 207.7471)" style="opacity:0.5;enable-background:new    ;" width="33.035" height="13.133"/>
				<rect x="127.308" y="318.102" style="fill:#407BFF;" width="1.128" height="35.033"/>
				<g>
					<rect x="120.349" y="328.875" style="fill:#407BFF;" width="15.045" height="1.128"/>
					<rect x="120.349" y="341.235" style="fill:#407BFF;" width="15.045" height="1.128"/>
				</g>
			</g>
			<g>
				<rect x="289.118" y="317.676" style="fill:#407BFF;" width="15.986" height="35.887"/>
				
					<rect x="280.593" y="329.053" transform="matrix(-1.836970e-16 1 -1 -1.836970e-16 632.7296 38.5087)" style="opacity:0.5;enable-background:new    ;" width="33.035" height="13.133"/>
				<rect x="296.546" y="318.102" style="fill:#407BFF;" width="1.128" height="35.033"/>
				<g>
					<rect x="289.588" y="328.875" style="fill:#407BFF;" width="15.045" height="1.128"/>
					<rect x="289.588" y="341.235" style="fill:#407BFF;" width="15.045" height="1.128"/>
				</g>
			</g>
			<g>
				<rect x="327.149" y="317.676" style="fill:#407BFF;" width="15.986" height="35.887"/>
				
					<rect x="318.624" y="329.053" transform="matrix(-1.836970e-16 1 -1 -1.836970e-16 670.7607 0.4775)" style="opacity:0.5;enable-background:new    ;" width="33.035" height="13.133"/>
				<rect x="334.577" y="318.102" style="fill:#407BFF;" width="1.128" height="35.033"/>
				<g>
					<rect x="327.619" y="328.875" style="fill:#407BFF;" width="15.045" height="1.128"/>
					<rect x="327.619" y="341.235" style="fill:#407BFF;" width="15.045" height="1.128"/>
				</g>
			</g>
			<g>
				<rect x="202.782" y="319.102" style="fill:#407BFF;" width="32.288" height="80.039"/>
				<rect x="205.007" y="320.616" style="opacity:0.2;enable-background:new    ;" width="28.875" height="78.525"/>
				<rect x="232.945" y="320.616" style="opacity:0.2;enable-background:new    ;" width="0.937" height="78.525"/>
				<rect x="202.782" y="319.102" style="opacity:0.4;enable-background:new    ;" width="0.944" height="80.039"/>
				<g>
					<path style="opacity:0.5;enable-background:new    ;" d="M218.707,332.922v-6.451c-3.136,0.285-5.628,3.021-5.867,6.451
						H218.707z"/>
					<path style="opacity:0.5;enable-background:new    ;" d="M219.785,332.922h5.868c-0.239-3.429-2.732-6.166-5.868-6.451V332.922
						z"/>
					<path style="opacity:0.5;enable-background:new    ;" d="M218.707,334h-5.867c0.239,3.429,2.732,6.166,5.867,6.451V334z"/>
					<path style="opacity:0.5;enable-background:new    ;" d="M219.785,334v6.451c3.136-0.285,5.628-3.021,5.868-6.451H219.785z"/>
				</g>
			</g>
			<rect x="412.103" y="317.781" style="fill:#407BFF;" width="3.26" height="81.986"/>
			<rect x="243.815" y="317.781" style="fill:#407BFF;" width="3.26" height="81.986"/>
		</g>
		<g>
			<rect x="86.008" y="398.384" style="fill:#407BFF;" width="334.492" height="17.266"/>
			<rect x="228.823" y="398.384" style="opacity:0.2;fill:#FFFFFF;enable-background:new    ;" width="191.677" height="17.266"/>
			<g>
				<g>
					<g>
						<polygon style="fill:#263238;" points="308.742,398.384 306.274,398.384 278.701,373.007 281.169,373.007 						"/>
						<polygon style="opacity:0.2;fill:#FFFFFF;enable-background:new    ;" points="308.742,398.384 307.508,398.384 
							279.935,373.007 281.169,373.007 						"/>
					</g>
					<g>
						<polygon style="fill:#263238;" points="336.633,398.384 334.165,398.384 306.592,373.007 309.06,373.007 						"/>
						<polygon style="opacity:0.2;fill:#FFFFFF;enable-background:new    ;" points="336.633,398.384 335.399,398.384 
							307.826,373.007 309.06,373.007 						"/>
					</g>
					<g>
						<polygon style="fill:#263238;" points="364.524,398.384 362.056,398.384 334.484,373.007 336.952,373.007 						"/>
						<polygon style="opacity:0.2;fill:#FFFFFF;enable-background:new    ;" points="364.524,398.384 363.29,398.384 
							335.717,373.007 336.952,373.007 						"/>
					</g>
					<g>
						<polygon style="fill:#263238;" points="392.415,398.384 389.947,398.384 362.375,373.007 364.843,373.007 						"/>
						<polygon style="opacity:0.2;fill:#FFFFFF;enable-background:new    ;" points="392.415,398.384 391.181,398.384 
							363.609,373.007 364.843,373.007 						"/>
					</g>
					<g>
						<polygon style="fill:#263238;" points="420.306,398.384 417.839,398.384 390.266,373.007 392.734,373.007 						"/>
						<polygon style="opacity:0.2;fill:#FFFFFF;enable-background:new    ;" points="420.306,398.384 419.073,398.384 
							391.5,373.007 392.734,373.007 						"/>
					</g>
				</g>
				<g>
					<g>
						<polygon style="fill:#263238;" points="281.488,398.384 279.02,398.384 306.592,373.007 309.06,373.007 						"/>
						<polygon style="opacity:0.2;fill:#FFFFFF;enable-background:new    ;" points="281.488,398.384 280.254,398.384 
							307.826,373.007 309.06,373.007 						"/>
					</g>
					<g>
						<polygon style="fill:#263238;" points="309.379,398.384 306.911,398.384 334.484,373.007 336.952,373.007 						"/>
						<polygon style="opacity:0.2;fill:#FFFFFF;enable-background:new    ;" points="309.379,398.384 308.145,398.384 
							335.717,373.007 336.952,373.007 						"/>
					</g>
					<g>
						<polygon style="fill:#263238;" points="337.27,398.384 334.802,398.384 362.375,373.007 364.843,373.007 						"/>
						<polygon style="opacity:0.2;fill:#FFFFFF;enable-background:new    ;" points="337.27,398.384 336.036,398.384 
							363.609,373.007 364.843,373.007 						"/>
					</g>
					<g>
						<polygon style="fill:#263238;" points="365.161,398.384 362.693,398.384 390.266,373.007 392.734,373.007 						"/>
						<polygon style="opacity:0.2;fill:#FFFFFF;enable-background:new    ;" points="365.161,398.384 363.927,398.384 
							391.5,373.007 392.734,373.007 						"/>
					</g>
					<g>
						<polygon style="fill:#263238;" points="393.052,398.384 390.585,398.384 418.157,373.007 420.625,373.007 						"/>
						<polygon style="opacity:0.2;fill:#FFFFFF;enable-background:new    ;" points="393.052,398.384 391.819,398.384 
							419.391,373.007 420.625,373.007 						"/>
					</g>
				</g>
				<g>
					<g>
						<rect x="278.701" y="373.007" style="fill:#263238;" width="2.468" height="25.376"/>
						<rect x="279.935" y="373.007" style="opacity:0.2;fill:#FFFFFF;enable-background:new    ;" width="1.234" height="25.376"/>
					</g>
					<g>
						<rect x="306.592" y="373.007" style="fill:#263238;" width="2.468" height="25.376"/>
						<rect x="307.826" y="373.007" style="opacity:0.2;fill:#FFFFFF;enable-background:new    ;" width="1.234" height="25.376"/>
					</g>
					<g>
						<rect x="334.484" y="373.007" style="fill:#263238;" width="2.468" height="25.376"/>
						<rect x="335.717" y="373.007" style="opacity:0.2;fill:#FFFFFF;enable-background:new    ;" width="1.234" height="25.376"/>
					</g>
					<g>
						<rect x="362.375" y="373.007" style="fill:#263238;" width="2.468" height="25.376"/>
						<rect x="363.609" y="373.007" style="opacity:0.2;fill:#FFFFFF;enable-background:new    ;" width="1.234" height="25.376"/>
					</g>
					<g>
						<rect x="390.266" y="373.007" style="fill:#263238;" width="2.468" height="25.376"/>
						<rect x="391.5" y="373.007" style="opacity:0.2;fill:#FFFFFF;enable-background:new    ;" width="1.234" height="25.376"/>
					</g>
					<g>
						<rect x="418.157" y="373.007" style="fill:#263238;" width="2.468" height="25.376"/>
						<rect x="419.391" y="373.007" style="opacity:0.2;fill:#FFFFFF;enable-background:new    ;" width="1.234" height="25.376"/>
					</g>
				</g>
				<g>
					<rect x="277.122" y="370.783" style="fill:#263238;" width="145.89" height="2.938"/>
					
						<rect x="279.975" y="370.783" transform="matrix(-1 -1.224647e-16 1.224647e-16 -1 702.9874 744.5033)" style="opacity:0.2;fill:#FFFFFF;enable-background:new    ;" width="143.037" height="2.938"/>
				</g>
			</g>
			<g>
				<g>
					<g>
						<polygon style="fill:#263238;" points="198.384,398.384 200.852,398.384 228.425,373.007 225.957,373.007 						"/>
						<polygon style="opacity:0.2;fill:#FFFFFF;enable-background:new    ;" points="198.384,398.384 199.618,398.384 
							227.191,373.007 225.957,373.007 						"/>
					</g>
					<g>
						<polygon style="fill:#263238;" points="170.493,398.384 172.961,398.384 200.534,373.007 198.066,373.007 						"/>
						<polygon style="opacity:0.2;fill:#FFFFFF;enable-background:new    ;" points="170.493,398.384 171.727,398.384 
							199.3,373.007 198.066,373.007 						"/>
					</g>
					<g>
						<polygon style="fill:#263238;" points="142.602,398.384 145.07,398.384 172.642,373.007 170.174,373.007 						"/>
						<polygon style="opacity:0.2;fill:#FFFFFF;enable-background:new    ;" points="142.602,398.384 143.836,398.384 
							171.408,373.007 170.174,373.007 						"/>
					</g>
					<g>
						<polygon style="fill:#263238;" points="114.711,398.384 117.179,398.384 144.751,373.007 142.283,373.007 						"/>
						<polygon style="opacity:0.2;fill:#FFFFFF;enable-background:new    ;" points="114.711,398.384 115.945,398.384 
							143.517,373.007 142.283,373.007 						"/>
					</g>
					<g>
						<polygon style="fill:#263238;" points="86.82,398.384 89.287,398.384 116.86,373.007 114.392,373.007 						"/>
						<polygon style="opacity:0.2;fill:#FFFFFF;enable-background:new    ;" points="86.82,398.384 88.053,398.384 115.626,373.007 
							114.392,373.007 						"/>
					</g>
				</g>
				<g>
					<g>
						<polygon style="fill:#263238;" points="225.638,398.384 228.106,398.384 200.534,373.007 198.066,373.007 						"/>
						<polygon style="opacity:0.2;fill:#FFFFFF;enable-background:new    ;" points="225.638,398.384 226.872,398.384 
							199.3,373.007 198.066,373.007 						"/>
					</g>
					<g>
						<polygon style="fill:#263238;" points="197.747,398.384 200.215,398.384 172.642,373.007 170.174,373.007 						"/>
						<polygon style="opacity:0.2;fill:#FFFFFF;enable-background:new    ;" points="197.747,398.384 198.981,398.384 
							171.408,373.007 170.174,373.007 						"/>
					</g>
					<g>
						<polygon style="fill:#263238;" points="169.856,398.384 172.324,398.384 144.751,373.007 142.283,373.007 						"/>
						<polygon style="opacity:0.2;fill:#FFFFFF;enable-background:new    ;" points="169.856,398.384 171.09,398.384 
							143.517,373.007 142.283,373.007 						"/>
					</g>
					<g>
						<polygon style="fill:#263238;" points="141.965,398.384 144.433,398.384 116.86,373.007 114.392,373.007 						"/>
						<polygon style="opacity:0.2;fill:#FFFFFF;enable-background:new    ;" points="141.965,398.384 143.199,398.384 
							115.626,373.007 114.392,373.007 						"/>
					</g>
					<g>
						<polygon style="fill:#263238;" points="114.074,398.384 116.541,398.384 88.969,373.007 86.501,373.007 						"/>
						<polygon style="opacity:0.2;fill:#FFFFFF;enable-background:new    ;" points="114.074,398.384 115.308,398.384 
							87.735,373.007 86.501,373.007 						"/>
					</g>
				</g>
				<g>
					<g>
						
							<rect x="225.957" y="373.007" transform="matrix(-1 -1.224647e-16 1.224647e-16 -1 454.3817 771.3913)" style="fill:#263238;" width="2.468" height="25.376"/>
						
							<rect x="225.957" y="373.007" transform="matrix(-1 -1.224647e-16 1.224647e-16 -1 453.1478 771.3913)" style="opacity:0.2;fill:#FFFFFF;enable-background:new    ;" width="1.234" height="25.376"/>
					</g>
					<g>
						
							<rect x="198.066" y="373.007" transform="matrix(-1 -1.224647e-16 1.224647e-16 -1 398.5993 771.3913)" style="fill:#263238;" width="2.468" height="25.376"/>
						
							<rect x="198.066" y="373.007" transform="matrix(-1 -1.224647e-16 1.224647e-16 -1 397.3654 771.3913)" style="opacity:0.2;fill:#FFFFFF;enable-background:new    ;" width="1.234" height="25.376"/>
					</g>
					<g>
						
							<rect x="170.174" y="373.007" transform="matrix(-1 -1.224647e-16 1.224647e-16 -1 342.8169 771.3913)" style="fill:#263238;" width="2.468" height="25.376"/>
						
							<rect x="170.174" y="373.007" transform="matrix(-1 -1.224647e-16 1.224647e-16 -1 341.583 771.3913)" style="opacity:0.2;fill:#FFFFFF;enable-background:new    ;" width="1.234" height="25.376"/>
					</g>
					<g>
						
							<rect x="142.283" y="373.007" transform="matrix(-1 -1.224647e-16 1.224647e-16 -1 287.0345 771.3913)" style="fill:#263238;" width="2.468" height="25.376"/>
						
							<rect x="142.283" y="373.007" transform="matrix(-1 -1.224647e-16 1.224647e-16 -1 285.8006 771.3913)" style="opacity:0.2;fill:#FFFFFF;enable-background:new    ;" width="1.234" height="25.376"/>
					</g>
					<g>
						
							<rect x="114.392" y="373.007" transform="matrix(-1 -1.224647e-16 1.224647e-16 -1 231.2522 771.3913)" style="fill:#263238;" width="2.468" height="25.376"/>
						
							<rect x="114.392" y="373.007" transform="matrix(-1 -1.224647e-16 1.224647e-16 -1 230.0182 771.3913)" style="opacity:0.2;fill:#FFFFFF;enable-background:new    ;" width="1.234" height="25.376"/>
					</g>
					<g>
						
							<rect x="86.501" y="373.007" transform="matrix(-1 -1.224647e-16 1.224647e-16 -1 175.4698 771.3913)" style="fill:#263238;" width="2.468" height="25.376"/>
						
							<rect x="86.501" y="373.007" transform="matrix(-1 -1.224647e-16 1.224647e-16 -1 174.2358 771.3913)" style="opacity:0.2;fill:#FFFFFF;enable-background:new    ;" width="1.234" height="25.376"/>
					</g>
				</g>
				<g>
					
						<rect x="84.114" y="370.783" transform="matrix(-1 -1.224647e-16 1.224647e-16 -1 314.118 744.5033)" style="fill:#263238;" width="145.89" height="2.938"/>
					
						<rect x="227.151" y="370.783" transform="matrix(-1 -1.224647e-16 1.224647e-16 -1 457.1549 744.419)" style="opacity:0.2;fill:#FFFFFF;enable-background:new    ;" width="2.853" height="2.853"/>
				</g>
			</g>
			<rect x="84.114" y="397.781" style="fill:#263238;" width="338.898" height="2.561"/>
			<rect x="228.676" y="397.781" style="opacity:0.2;fill:#FFFFFF;enable-background:new    ;" width="194.336" height="2.561"/>
		</g>
		<g>
			<g>
				<polygon style="fill:#263238;" points="369.852,301.328 180.295,301.328 137.624,228.955 327.181,228.955 				"/>
				<polygon style="opacity:0.2;fill:#FFFFFF;enable-background:new    ;" points="369.852,301.328 183.148,301.328 
					140.477,228.955 327.181,228.955 				"/>
			</g>
			<polygon style="fill:#263238;" points="431.705,321.272 241.506,321.272 179.653,301.294 369.852,301.294 431.705,319.371 			"/>
			<polygon style="opacity:0.2;fill:#FFFFFF;enable-background:new    ;" points="431.705,321.272 241.506,321.272 179.653,301.294 
				369.852,301.294 431.705,319.371 			"/>
			<g>
				<rect x="137.623" y="225.934" style="fill:#263238;" width="189.626" height="2.938"/>
				<rect x="137.623" y="225.934" style="opacity:0.2;fill:#FFFFFF;enable-background:new    ;" width="2.853" height="2.853"/>
			</g>
			<g>
				<path style="opacity:0.2;enable-background:new    ;" d="M157.536,227.361c0.29,0.817,0.762,1.556,1.172,2.318l1.286,2.263
					l2.63,4.494l5.278,8.979l10.545,17.966l10.429,18.035l5.164,9.048l5.088,9.093c-1.858-2.935-3.661-5.904-5.49-8.856
					l-5.393-8.914c-3.581-5.951-7.087-11.946-10.618-17.927c-3.464-6.02-6.96-12.021-10.356-18.081l-5.05-9.115l-2.446-4.602
					C158.992,230.516,158.11,229.003,157.536,227.361z"/>
				<path style="opacity:0.2;enable-background:new    ;" d="M176.586,227.361c0.29,0.817,0.762,1.556,1.171,2.318l1.286,2.263
					l2.63,4.494l5.278,8.979l10.545,17.966l10.429,18.035l5.164,9.048l5.088,9.093c-1.858-2.935-3.661-5.904-5.49-8.856
					l-5.393-8.914c-3.581-5.951-7.087-11.946-10.618-17.927c-3.464-6.02-6.96-12.021-10.356-18.081l-5.05-9.115l-2.446-4.602
					C178.042,230.516,177.16,229.003,176.586,227.361z"/>
				<path style="opacity:0.2;enable-background:new    ;" d="M195.636,227.361c0.29,0.817,0.762,1.556,1.171,2.318l1.286,2.263
					l2.63,4.494l5.278,8.979l10.545,17.966l10.429,18.035l5.164,9.048l5.088,9.093c-1.858-2.935-3.661-5.904-5.49-8.856
					l-5.393-8.914c-3.581-5.951-7.087-11.946-10.618-17.927c-3.464-6.02-6.96-12.021-10.356-18.081l-5.05-9.115l-2.446-4.602
					C197.092,230.516,196.21,229.003,195.636,227.361z"/>
				<path style="opacity:0.2;enable-background:new    ;" d="M214.686,227.361c0.29,0.817,0.762,1.556,1.172,2.318l1.286,2.263
					l2.63,4.494l5.278,8.979l10.545,17.966l10.429,18.035l5.164,9.048l5.088,9.093c-1.858-2.935-3.661-5.904-5.49-8.856
					l-5.393-8.914c-3.581-5.951-7.087-11.946-10.618-17.927c-3.464-6.02-6.96-12.021-10.356-18.081l-5.05-9.115l-2.446-4.602
					C216.142,230.516,215.26,229.003,214.686,227.361z"/>
				<path style="opacity:0.2;enable-background:new    ;" d="M233.736,227.361c0.29,0.817,0.762,1.556,1.172,2.318l1.286,2.263
					l2.63,4.494l5.278,8.979l10.545,17.966l10.429,18.035l5.164,9.048l5.088,9.093c-1.858-2.935-3.661-5.904-5.49-8.856
					l-5.393-8.914c-3.581-5.951-7.087-11.946-10.618-17.927c-3.464-6.02-6.96-12.021-10.356-18.081l-5.05-9.115l-2.446-4.602
					C235.192,230.516,234.31,229.003,233.736,227.361z"/>
				<path style="opacity:0.2;enable-background:new    ;" d="M252.786,227.361c0.29,0.817,0.762,1.556,1.172,2.318l1.286,2.263
					l2.63,4.494l5.278,8.979l10.545,17.966l10.429,18.035l5.164,9.048l5.088,9.093c-1.858-2.935-3.661-5.904-5.49-8.856
					l-5.393-8.914c-3.581-5.951-7.087-11.946-10.618-17.927c-3.464-6.02-6.96-12.021-10.356-18.081l-5.05-9.115l-2.446-4.602
					C254.242,230.516,253.36,229.003,252.786,227.361z"/>
				<path style="opacity:0.2;enable-background:new    ;" d="M271.836,227.361c0.29,0.817,0.762,1.556,1.172,2.318l1.286,2.263
					l2.63,4.494l5.278,8.979l10.545,17.966l10.429,18.035l5.164,9.048l5.088,9.093c-1.858-2.935-3.66-5.904-5.49-8.856l-5.393-8.914
					c-3.581-5.951-7.087-11.946-10.618-17.927c-3.464-6.02-6.96-12.021-10.356-18.081l-5.05-9.115l-2.446-4.602
					C273.292,230.516,272.41,229.003,271.836,227.361z"/>
				<path style="opacity:0.2;enable-background:new    ;" d="M290.886,227.361c0.29,0.817,0.762,1.556,1.172,2.318l1.286,2.263
					l2.63,4.494l5.278,8.979l10.545,17.966l10.429,18.035l5.164,9.048l5.088,9.093c-1.858-2.935-3.661-5.904-5.49-8.856
					l-5.393-8.914c-3.581-5.951-7.087-11.946-10.618-17.927c-3.464-6.02-6.96-12.021-10.356-18.081l-5.05-9.115l-2.446-4.602
					C292.342,230.516,291.46,229.003,290.886,227.361z"/>
				<path style="opacity:0.2;enable-background:new    ;" d="M309.935,227.361c0.29,0.817,0.762,1.556,1.172,2.318l1.286,2.263
					l2.63,4.494l5.278,8.979l10.545,17.966l10.429,18.035l5.164,9.048l5.088,9.093c-1.858-2.935-3.661-5.904-5.49-8.856
					l-5.393-8.914c-3.581-5.951-7.087-11.946-10.618-17.927c-3.464-6.02-6.96-12.021-10.356-18.081l-5.05-9.115l-2.446-4.602
					C311.392,230.516,310.51,229.003,309.935,227.361z"/>
				<g>
					<rect x="142.945" y="234.888" style="fill:#263238;" width="189.626" height="2.938"/>
					<rect x="142.945" y="234.888" style="opacity:0.2;fill:#FFFFFF;enable-background:new    ;" width="2.853" height="2.853"/>
				</g>
				<g>
					<rect x="148.266" y="243.841" style="fill:#263238;" width="189.626" height="2.938"/>
					<rect x="148.266" y="243.841" style="opacity:0.2;fill:#FFFFFF;enable-background:new    ;" width="2.853" height="2.853"/>
				</g>
				<g>
					<rect x="153.588" y="252.795" style="fill:#263238;" width="189.626" height="2.938"/>
					<rect x="153.588" y="252.795" style="opacity:0.2;fill:#FFFFFF;enable-background:new    ;" width="2.853" height="2.853"/>
				</g>
				<g>
					<rect x="158.909" y="261.748" style="fill:#263238;" width="189.626" height="2.938"/>
					<rect x="158.909" y="261.748" style="opacity:0.2;fill:#FFFFFF;enable-background:new    ;" width="2.853" height="2.853"/>
				</g>
				<g>
					<rect x="164.231" y="270.702" style="fill:#263238;" width="189.626" height="2.938"/>
					<rect x="164.231" y="270.702" style="opacity:0.2;fill:#FFFFFF;enable-background:new    ;" width="2.853" height="2.853"/>
				</g>
				<g>
					<rect x="169.552" y="279.655" style="fill:#263238;" width="189.626" height="2.938"/>
					<rect x="169.552" y="279.655" style="opacity:0.2;fill:#FFFFFF;enable-background:new    ;" width="2.853" height="2.853"/>
				</g>
				<g>
					<rect x="174.874" y="288.609" style="fill:#263238;" width="189.626" height="2.938"/>
					<rect x="174.874" y="288.609" style="opacity:0.2;fill:#FFFFFF;enable-background:new    ;" width="2.853" height="2.853"/>
				</g>
			</g>
			<g>
				<rect x="174.219" y="298.296" style="fill:#263238;" width="198.183" height="2.938"/>
				<rect x="174.219" y="298.296" style="opacity:0.2;fill:#FFFFFF;enable-background:new    ;" width="2.853" height="2.853"/>
			</g>
			<polygon style="fill:#263238;" points="431.705,319.371 241.506,319.371 179.653,299.392 369.852,299.392 			"/>
		</g>
	</g>
</g>
</svg>
